<?xml version="1.0" encoding="utf-8"?>
<!-- Generator: Adobe Illustrator 22.0.1, SVG Export Plug-In . SVG Version: 6.00 Build 0)  -->
<svg version="1.1" id="Capa_1" xmlns="http://www.w3.org/2000/svg" xmlns:xlink="http://www.w3.org/1999/xlink" x="0px" y="0px"
	 viewBox="0 0 145 145" style="enable-background:new 0 0 145 145;" xml:space="preserve">
<style type="text/css">
	.st0{fill:#262626;}
</style>
<g>
	<path class="st0" d="M122.5,20.6h-100c-8.9,0-16,7.1-16,16v16.7v55.2c0,8.9,7.1,16,16,16h100c8.9,0,16-7.1,16-16V53.2V36.5
		C138.5,27.8,131.4,20.6,122.5,20.6z M132.7,108.6c0,5.7-4.5,10.2-10.2,10.2h-100c-5.7,0-10.2-4.5-10.2-10.2V53.4h120.3V108.6z
		 M132.7,47.4H12.3V36.5c0-5.7,4.5-10.2,10.2-10.2h100c5.7,0,10.2,4.5,10.2,10.2V47.4z"/>
	<circle class="st0" cx="22.7" cy="37.3" r="7.4"/>
	<circle class="st0" cx="42.9" cy="37.3" r="7.4"/>
	<circle class="st0" cx="63.1" cy="37.3" r="7.4"/>
	<path class="st0" d="M91.7,106.9c0.6,0.6,1.3,0.9,2,0.9c0.7,0,1.5-0.3,2-0.9l18.6-18.6c0.6-0.6,0.9-1.3,0.9-2s-0.3-1.5-0.9-2
		L95.8,65.5c-1.2-1.2-2.9-1.2-4.1,0c-1.2,1.2-1.2,2.9,0,4.1l16.6,16.6l-16.6,16.6C90.5,103.8,90.5,105.7,91.7,106.9z"/>
	<path class="st0" d="M49.2,106.9c0.6,0.6,1.3,0.9,2,0.9c0.7,0,1.5-0.3,2-0.9c1.2-1.2,1.2-2.9,0-4.1L36.8,86.1l16.6-16.4
		c1.2-1.2,1.2-2.9,0-4.1c-1.2-1.2-2.9-1.2-4.1,0L30.6,84.1c-0.6,0.6-0.9,1.3-0.9,2s0.3,1.5,0.9,2L49.2,106.9z"/>
	<path class="st0" d="M61.2,107.3c0.4,0.3,0.9,0.3,1.3,0.3c1,0,2-0.6,2.6-1.6l20.1-37.2c0.7-1.5,0.3-3.2-1.2-3.9
		c-1.5-0.7-3.2-0.3-3.9,1.2L60,103.4C59.1,104.8,59.7,106.6,61.2,107.3z"/>
</g>
</svg>
