<?xml version="1.0" encoding="UTF-8" standalone="no"?>
<svg width="20px" height="20px" viewBox="0 0 20 20" version="1.1" xmlns="http://www.w3.org/2000/svg" xmlns:xlink="http://www.w3.org/1999/xlink" xmlns:sketch="http://www.bohemiancoding.com/sketch/ns">
    <!-- Generator: Sketch 3.3.1 (12002) - http://www.bohemiancoding.com/sketch -->
    <title>ICON</title>
    <desc>Created with Sketch.</desc>
    <defs></defs>
    <g id="Add-New-kit" stroke="none" stroke-width="1" fill="none" fill-rule="evenodd" sketch:type="MSPage">
        <g id="ADD-KIT-1" sketch:type="MSArtboardGroup" transform="translate(-20.000000, -235.000000)" fill="#35C2E5">
            <g id="1.-Basic-information" sketch:type="MSLayerGroup" transform="translate(0.000000, 183.000000)">
                <g id="Basic-info-–-Description" transform="translate(20.000000, 50.000000)" sketch:type="MSShapeGroup">
                    <g id="ICON" transform="translate(0.000000, 2.000000)">
                        <path d="M10,0 C4.5,0 0,4.5 0,10 C0,15.5 4.5,20 10,20 C15.5,20 20,15.5 20,10 C20,4.5 15.5,0 10,0 L10,0 Z M10,18 C5.6,18 2,14.4 2,10 C2,5.6 5.6,2 10,2 C14.4,2 18,5.6 18,10 C18,14.4 14.4,18 10,18 L10,18 Z" id="Shape"></path>
                        <path d="M6.75925926,6.25 C6.25,6.25 5.83333333,6.67857143 5.83333333,7.20238095 L5.83333333,12.202381 C5.83333333,12.7261905 6.25,13.1547619 6.75925926,13.1547619 L8.61111111,13.1547619 L10,14.5833333 L11.3888889,13.1547619 L13.2407407,13.1547619 C13.75,13.1547619 14.1666667,12.7261905 14.1666667,12.202381 L14.1666667,7.20238095 C14.1666667,6.67857143 13.75,6.25 13.2407407,6.25 L6.75925926,6.25 Z" id="Shape-Copy"></path>
                    </g>
                </g>
            </g>
        </g>
    </g>
</svg>