<?xml version="1.0" encoding="UTF-8" standalone="no"?>
<svg width="15px" height="14px" viewBox="0 0 15 14" version="1.1" xmlns="http://www.w3.org/2000/svg" xmlns:xlink="http://www.w3.org/1999/xlink" xmlns:sketch="http://www.bohemiancoding.com/sketch/ns">
    <!-- Generator: Sketch 3.3.1 (12002) - http://www.bohemiancoding.com/sketch -->
    <title>Chart_icons_inactive</title>
    <desc>Created with Sketch.</desc>
    <defs></defs>
    <g class="stroke_container" id="Preview" stroke="none" stroke-width="1" sketch:type="MSPage">
        <g class="fill_container" id="Subnavbar-+-preview-+-popup-OK" sketch:type="MSArtboardGroup" transform="translate(-790.000000, -385.000000)">
            <g id="Subnavbar" sketch:type="MSLayerGroup" transform="translate(0.000000, 376.000000)">
                <g id="Navigation" transform="translate(778.000000, 9.000000)" sketch:type="MSShapeGroup">
                    <g id="CHARTS" transform="translate(0.400000, 0.000000)">
                        <path d="M15.1111111,11.2 L16.6666667,11.2 L16.6666667,2.8 L15.1111111,2.8 L15.1111111,11.2 L15.1111111,11.2 Z M18.2222222,14 L19.7777778,14 L19.7777778,0 L18.2222222,0 L18.2222222,14 L18.2222222,14 Z M12,8.4 L13.5555556,8.4 L13.5555556,5.6 L12,5.6 L12,8.4 L12,8.4 Z M21.3333333,11.2 L22.8888889,11.2 L22.8888889,2.8 L21.3333333,2.8 L21.3333333,11.2 L21.3333333,11.2 Z M24.4444444,5.6 L24.4444444,8.4 L26,8.4 L26,5.6 L24.4444444,5.6 L24.4444444,5.6 Z" id="Chart_icons"></path>
                    </g>
                </g>
            </g>
        </g>
    </g>
</svg>
