<?xml version="1.0" encoding="UTF-8" standalone="no"?>
<svg width="20px" height="16px" viewBox="0 0 20 16" version="1.1" xmlns="http://www.w3.org/2000/svg" xmlns:xlink="http://www.w3.org/1999/xlink" xmlns:sketch="http://www.bohemiancoding.com/sketch/ns">
    <!-- Generator: Sketch 3.3.1 (12002) - http://www.bohemiancoding.com/sketch -->
    <title>co_icon</title>
    <desc>Created with Sketch.</desc>
    <defs></defs>
    <g id="Preview-+-popup" stroke="none" stroke-width="1" sketch:type="MSPage">
        <g id="Subnavbar-+-preview-+-popup-OK" class="container_parent" sketch:type="MSArtboardGroup" transform="translate(-643.000000, -447.000000)" fill-opacity="0.87">
            <g id="Preview" class="container_children" sketch:type="MSLayerGroup" transform="translate(0.000000, 408.000000)">
                <g id="Sensor-data" transform="translate(74.000000, 6.000000)" sketch:type="MSShapeGroup">
                    <g id="CO-PREVIEW" transform="translate(569.000000, 17.000000)">
                        <path d="M16.8403478,21.483229 C16.8536656,21.3289568 16.8608794,21.1703081 16.8608794,21.0105652 C16.8608794,18.2429651 14.7000677,16 12.0304053,16 C9.95782396,16 8.19654598,17.3545321 7.51012479,19.2555818 C7.05510024,18.7364174 6.40752261,18.4043492 5.67559897,18.4043492 C4.30164677,18.4043492 3.18961115,19.5613909 3.18961115,20.9870414 C3.18961115,21.1549903 3.20625839,21.3180155 3.23511361,21.4772113 C1.4022525,21.7895853 0,23.4296851 0,25.4199063 C0,27.634424 1.73020313,29.4282491 3.86382436,29.4282491 L5.65118301,29.4282491 C5.55351921,29.2137997 5.49691859,28.9823914 5.49691859,28.7400417 C5.49691859,28.310596 5.65950663,27.9079564 5.94972351,27.6048826 L9.29359909,24.1332102 C9.58437088,23.8328717 9.97280647,23.66547 10.3867678,23.66547 C10.8029488,23.66547 11.1930492,23.83506 11.4827111,24.1359456 L14.8243671,27.6065237 C15.1162487,27.9079564 15.2755073,28.310596 15.2755073,28.7400417 C15.2755073,28.9845796 15.2200165,29.2137997 15.1223527,29.4282491 L16.1378343,29.4282491 C18.2709006,29.4282491 19.9999939,27.634424 19.9999939,25.4199063 C20.0033234,23.4537559 18.636585,21.8262386 16.8403478,21.483229 L16.8403478,21.483229 Z M10.934462,24.7027046 C10.7846369,24.5446029 10.5843151,24.4680138 10.3867678,24.4680138 C10.1897755,24.4680138 9.99167335,24.5446029 9.84073837,24.7027046 L6.49464317,28.1705474 C6.19332812,28.4829213 6.19443794,28.9949738 6.49741771,29.3057066 L6.92636158,29.7499231 C7.22823153,30.0617499 7.67271284,30.1098916 7.91132327,29.8587889 C8.15437298,29.6104216 8.35192022,29.7625056 8.35192022,30.2067221 L8.35192022,31.1985503 C8.35192022,31.6383903 8.70095735,32 9.12490706,32 L11.6480737,32 C12.0764627,32 12.4210605,31.6383903 12.4210605,31.1985503 L12.4210605,30.2067221 C12.4210605,29.7625056 12.6202725,29.6104216 12.8605477,29.8587889 C13.1035974,30.1098916 13.5480787,30.0617499 13.8482839,29.7499231 L14.2777827,29.3057066 C14.5807625,28.9949738 14.5807625,28.4829213 14.2800023,28.1705474 L10.934462,24.7027046 L10.934462,24.7027046 Z" id="co_icon"></path>
                    </g>
                </g>
            </g>
        </g>
    </g>
</svg>
