<svg xmlns="http://www.w3.org/2000/svg" viewBox="0 0 11.41 11.41"><title>sck-21-icons</title><path d="M8.61,4.81c0-.07,0-0.13,0-0.2A2.11,2.11,0,0,0,6.57,2.44a2.06,2.06,0,0,0-1.92,1.4,1,1,0,0,0-.78-0.37A1.09,1.09,0,0,0,2.81,4.59a1.11,1.11,0,0,0,0,.21,1.7,1.7,0,0,0-1.37,1.7A1.69,1.69,0,0,0,3.09,8.24H3.85A0.71,0.71,0,0,1,4,7.45L5.4,6a0.64,0.64,0,0,1,.93,0l1.42,1.5a0.7,0.7,0,0,1,.19.49,0.71,0.71,0,0,1-.07.3H8.31A1.69,1.69,0,0,0,10,6.51a1.7,1.7,0,0,0-1.34-1.7M6,6.55a0.24,0.24,0,0,0-.36,0L4.6,7.7a0.27,0.27,0,0,0,0,.38L4.74,8.22a0.22,0.22,0,0,0,.32,0c0.08-.08.14,0,0.14,0.11V8.7A0.26,0.26,0,0,0,5.46,9H6.28A0.26,0.26,0,0,0,6.53,8.7V8.37c0-.15.07-0.2,0.14-0.11a0.23,0.23,0,0,0,.32,0l0.14-.15a0.28,0.28,0,0,0,0-.37Z"/><rect width="11.41" height="11.41" style="fill:none"/></svg>