<?xml version="1.0" encoding="UTF-8" standalone="no"?>
<svg width="14px" height="14px" viewBox="0 0 14 14" version="1.1" xmlns="http://www.w3.org/2000/svg" xmlns:xlink="http://www.w3.org/1999/xlink" xmlns:sketch="http://www.bohemiancoding.com/sketch/ns">
    <!-- Generator: Sketch 3.3.1 (12002) - http://www.bohemiancoding.com/sketch -->
    <title>Community icon</title>
    <desc>Created with Sketch.</desc>
    <defs></defs>
    <g id="Map-elements" stroke="none" stroke-width="1" sketch:type="MSPage">
        <g sketch:type="MSArtboardGroup" transform="translate(-161.000000, -26.000000)" id="map">
            <g sketch:type="MSLayerGroup">
                <g id="Menu" transform="translate(70.196078, 0.000000)" sketch:type="MSShapeGroup">
                    <g id="Community" transform="translate(82.803922, 0.000000)">
                        <path d="M12.9,33 C12.13,33 11.5,33.63 11.5,34.4 C11.5,35.17 12.13,35.8 12.9,35.8 C13.67,35.8 14.3,35.17 14.3,34.4 C14.3,33.63 13.67,33 12.9,33 L12.9,33 L12.9,33 Z M16.4,30.9 C16.4,30.13 15.77,29.5 15,29.5 C14.23,29.5 13.6,30.13 13.6,30.9 C13.6,31.67 14.23,32.3 15,32.3 C15.77,32.3 16.4,31.67 16.4,30.9 L16.4,30.9 L16.4,30.9 Z M15,26 C11.15,26 8,29.15 8,33 C8,36.85 11.15,40 15,40 C18.85,40 22,36.85 22,33 C22,29.15 18.85,26 15,26 L15,26 L15,26 Z M15,38.6 C11.92,38.6 9.4,36.08 9.4,33 C9.4,29.92 11.92,27.4 15,27.4 C18.08,27.4 20.6,29.92 20.6,33 C20.6,36.08 18.08,38.6 15,38.6 L15,38.6 L15,38.6 Z M17.1,33 C16.33,33 15.7,33.63 15.7,34.4 C15.7,35.17 16.33,35.8 17.1,35.8 C17.87,35.8 18.5,35.17 18.5,34.4 C18.5,33.63 17.87,33 17.1,33 L17.1,33 L17.1,33 Z" id="Community-icon"></path>
                    </g>
                </g>
            </g>
        </g>
    </g>
</svg>
