<?xml version="1.0" encoding="utf-8"?>
<!-- Generator: Adobe Illustrator 22.0.1, SVG Export Plug-In . SVG Version: 6.00 Build 0)  -->
<svg version="1.1" id="Capa_1" xmlns="http://www.w3.org/2000/svg" xmlns:xlink="http://www.w3.org/1999/xlink" x="0px" y="0px"
	 viewBox="0 0 200 200" style="enable-background:new 0 0 200 200;" xml:space="preserve">
<style type="text/css">
	.st0{fill:#FFFFFF;}
</style>
<g>
	<path class="st0" d="M66.4,78.2c4,0,7.9-1,11.4-2.8l0.7-0.4l0.4,0.7C83.3,83,91.4,87.6,100,87.6c8.6,0,16.7-4.6,21.1-11.9l0.4-0.7
		l0.7,0.4c3.5,1.8,7.4,2.8,11.4,2.8c13.6,0,24.6-11,24.6-24.6c0-13.6-11-24.7-24.6-24.7c-8.6,0-16.7,4.6-21,11.9l-0.4,0.7l-0.7-0.4
		c-3.5-1.9-7.4-2.8-11.4-2.8c-4.1,0-7.9,1-11.5,2.9l-0.7,0.4l-0.4-0.7c-4.4-7.4-12.5-12-21.1-12c-13.6,0-24.6,11.1-24.6,24.7
		C41.8,67.1,52.8,78.2,66.4,78.2z M117.3,44.6c3.2-5.9,9.6-9.7,16.3-9.7c10.3,0,18.6,8.4,18.6,18.7c0,10.3-8.4,18.6-18.6,18.6
		c-3.3,0-6.5-0.9-9.3-2.5l-0.5-0.3l0.1-0.6c0.2-0.7,0.3-1.4,0.4-2.2c0-0.3,0.1-0.5,0.1-0.7c0.1-1.1,0.2-2,0.2-2.9
		c0-0.9,0-1.7-0.1-2.7l-0.1-0.9c-0.1-0.6-0.2-1.2-0.3-1.8c0-0.2-0.1-0.4-0.2-0.7l-0.1-0.4c-0.1-0.5-0.3-1-0.4-1.5
		c-0.1-0.3-0.2-0.6-0.4-1c-0.2-0.6-0.4-1-0.6-1.5c-0.2-0.4-0.3-0.7-0.5-1.1c-0.2-0.4-0.4-0.8-0.7-1.2c-0.2-0.3-0.4-0.7-0.6-1
		c-0.3-0.4-0.5-0.8-0.9-1.2c-0.2-0.3-0.5-0.6-0.7-0.9c-0.3-0.3-0.6-0.7-1-1l-1-1.1L117.3,44.6z M88.4,48.3c3.4-2.7,7.4-4.1,11.6-4.1
		c4.2,0,8.2,1.4,11.5,4.1c4.5,3.5,7.1,8.9,7.1,14.6c0,2.2-0.4,4.5-1.2,6.6c-2.7,7.2-9.7,12.1-17.4,12.1c-7.8,0-14.8-4.9-17.5-12.2
		c-0.8-2.1-1.2-4.2-1.2-6.5c0-0.7,0-1.5,0.1-2.1C82,55.8,84.5,51.4,88.4,48.3z M66.4,34.8c6.7,0,13.1,3.8,16.3,9.7l0.3,0.5L82.1,46
		c-0.4,0.4-0.8,0.8-1.1,1.2c-0.2,0.2-0.3,0.4-0.5,0.6l-0.2,0.2c-0.3,0.4-0.6,0.8-0.9,1.3c-0.2,0.3-0.4,0.6-0.6,0.9
		c-0.3,0.4-0.5,0.9-0.8,1.3c-0.2,0.3-0.3,0.7-0.5,1c-0.2,0.5-0.4,1-0.7,1.6l0,0.1c-0.1,0.3-0.2,0.5-0.3,0.8c-0.2,0.5-0.3,1-0.5,1.6
		l-0.1,0.3c-0.1,0.2-0.1,0.5-0.2,0.7c-0.1,0.6-0.2,1.2-0.3,1.8l-0.1,0.3c0,0.2-0.1,0.4-0.1,0.5c-0.1,0.9-0.1,1.8-0.1,2.7
		c0,0.9,0.1,1.8,0.2,2.9l0.1,0.7c0.1,0.8,0.3,1.5,0.4,2.2l0.1,0.6l-0.5,0.3c-2.8,1.6-6,2.5-9.3,2.5c-10.3,0-18.6-8.4-18.6-18.6
		C47.7,43.2,56.1,34.8,66.4,34.8z"/>
	<path class="st0" d="M167.2,123.9l-0.6-0.2v-9.2c0-4.2-0.9-8.3-2.6-12.2c0-0.1-0.1-0.1-0.1-0.2c-3.2-6.8-9-12.2-15.8-14.9
		c-3.4-1.4-7.1-2.1-10.8-2.1H130c-2.3,0-4.6,0.3-6.8,0.8c-5.5,1.3-10.7,4.4-14.7,8.7l-0.3,0.3l-0.4-0.1c-1.5-0.2-2.8-0.3-4-0.3h-7.4
		c-1.2,0-2.5,0.1-4,0.3l-0.4,0.1l-0.3-0.3c-5.6-6-13.4-9.5-21.5-9.5h-7.3c-16.2,0-29.4,13.2-29.4,29.4v9.2l-0.6,0.2
		c-16.4,5-25,11.8-25,19.4c0,8.4,10.2,15.5,29.4,20.7c16.9,4.5,39.8,7.1,62.9,7.1s46-2.6,62.9-7.1c19.2-5.2,29.4-12.3,29.4-20.7
		C192.2,135.6,183.6,128.9,167.2,123.9z M115.8,95.9c2.6-2,5.6-3.4,8.7-4.2c1.7-0.4,3.6-0.6,5.4-0.6h7.3c3,0,5.9,0.6,8.6,1.7
		c5.6,2.2,10.2,6.6,12.7,12.1c0,0.1,0.1,0.1,0.1,0.2c1.4,3.1,2,6.2,2,9.5V136H133v-12.1c0-1.5-0.1-3-0.3-4.5
		c-0.2-1.3-0.5-2.5-0.8-3.7c-0.1-0.3-0.2-0.6-0.3-0.9l-0.4-1c-0.2-0.6-0.4-1.1-0.6-1.6c-0.2-0.3-0.3-0.7-0.5-1l-0.5-1
		c-0.2-0.5-0.5-0.9-0.7-1.4c-0.2-0.3-0.4-0.6-0.6-0.9l-0.7-1c-0.3-0.4-0.5-0.8-0.8-1.2c-0.2-0.3-0.5-0.5-0.7-0.8l-0.8-0.9
		c-0.3-0.4-0.6-0.7-1-1.1c-0.3-0.3-0.6-0.5-0.9-0.8l-0.9-0.8c-0.4-0.3-0.7-0.6-1.1-0.9c-0.3-0.2-0.6-0.4-1-0.6l-1-0.6
		c-0.4-0.3-0.8-0.6-1.3-0.8c-0.3-0.2-0.7-0.4-1.1-0.5l-2.2-1.1L115.8,95.9z M96.3,100.5h7.4c1.7,0,3.4,0.2,5,0.6
		c1.2,0.2,2.3,0.6,3.5,1.1c7.7,3,13.3,10,14.6,18.2c0.2,1.2,0.3,2.4,0.3,3.6v21.5H73v-21.5c0-1.2,0.1-2.4,0.3-3.6
		c0.7-4.8,2.9-9.2,6.3-12.7c0.9-0.9,1.8-1.8,2.9-2.6c2.7-2,5.7-3.4,9-4.1C93,100.6,94.6,100.5,96.3,100.5z M39.3,114.5
		c0-12.9,10.5-23.4,23.4-23.4H70c5.1,0,10.1,1.7,14.1,4.8l1.1,0.8L84,97.2c-0.5,0.2-0.9,0.4-1.3,0.7l-0.3,0.2
		c-0.2,0.1-0.4,0.2-0.5,0.3c-1,0.6-1.9,1.1-2.7,1.8l-0.2,0.2l0,0l-0.2,0.2c-1.3,1-2.4,2-3.4,3c-4.3,4.4-7,9.9-7.9,15.9
		c-0.2,1.4-0.4,2.9-0.4,4.5V136H39.3V114.5z M100,165.2c-50.8,0-86.3-11.5-86.3-21.9c0-3.3,4.9-8.5,18.5-13l1.1-0.4v9.1
		c0,1.7,1.3,3,3,3H67v6.4c0,1.7,1.3,3,3,3h60c1.6,0,3-1.3,3-3V142h30.7c1.6,0,3-1.3,3-3v-9l1.1,0.4c13.7,4.6,18.5,9.7,18.5,13
		C186.3,153.6,150.8,165.2,100,165.2z"/>
</g>
</svg>
