<?xml version="1.0" encoding="UTF-8" standalone="no"?>
<svg width="22px" height="22px" viewBox="0 0 22 22" version="1.1" xmlns="http://www.w3.org/2000/svg" xmlns:xlink="http://www.w3.org/1999/xlink" xmlns:sketch="http://www.bohemiancoding.com/sketch/ns">
    <!-- Generator: Sketch 3.3.1 (12002) - http://www.bohemiancoding.com/sketch -->
    <title>Setting Icon Copy</title>
    <desc>Created with Sketch.</desc>
    <defs></defs>
    <g id="Owner-detail" stroke="none" stroke-width="1" sketch:type="MSPage">
        <g id="my-owner-detail" sketch:type="MSArtboardGroup" transform="translate(-835.000000, -1496.000000)">
            <g id="OWNER-DETAILS" sketch:type="MSLayerGroup" transform="translate(0.000000, 1116.000000)">
                <g id="My-Kits" transform="translate(167.000000, 205.000000)" sketch:type="MSShapeGroup">
                    <g id="LIST">
                        <g id="Kit-2" transform="translate(0.000000, 163.000000)">
                            <path d="M688.963371,21.1538664 L687.442004,20.9937022 C687.225879,20.0813452 686.866185,19.2261069 686.38685,18.4503719 L687.350537,17.2601396 C687.723739,16.7993299 687.688618,16.1316574 687.269104,15.7125289 L686.287278,14.7307031 C685.86815,14.3115746 685.200477,14.2764543 684.740053,14.6492702 L683.549821,15.612957 C682.7737,15.1340081 681.919234,14.7739281 681.006491,14.557803 L680.846327,13.036436 C680.784191,12.447109 680.287103,11.999807 679.694688,11.999807 L678.305698,11.999807 C677.713283,11.999807 677.216195,12.447109 677.154445,13.036436 L676.993895,14.557803 C676.081538,14.7739281 675.226686,15.1340081 674.450565,15.612957 L673.260333,14.6492702 C672.799909,14.2764543 672.13185,14.3115746 671.713108,14.7307031 L670.730896,15.7125289 C670.312154,16.1316574 670.277033,16.7993299 670.649849,17.2601396 L671.61315,18.4503719 C671.134587,19.2261069 670.774507,20.0813452 670.558382,20.9937022 L669.036629,21.1538664 C668.447302,21.2160024 668,21.7130903 668,22.3055049 L668,23.6944951 C668,24.2869097 668.447302,24.7839976 669.036629,24.8461336 L670.558382,25.0062978 C670.774507,25.9190408 671.134587,26.7738931 671.61315,27.5496281 L670.649849,28.7398604 C670.277033,29.2006701 670.312154,29.8683426 670.730896,30.2874711 L671.713108,31.2692969 C672.13185,31.6884254 672.799909,31.7235457 673.260333,31.3507298 L674.450565,30.387043 C675.226686,30.8659919 676.081538,31.2260719 676.993895,31.442197 L677.154445,32.963564 C677.216195,33.552891 677.713283,34.000193 678.305698,34.000193 L679.694688,34.000193 C680.287103,34.000193 680.784191,33.552891 680.846327,32.963564 L681.006491,31.442197 C681.919234,31.2260719 682.7737,30.8659919 683.549821,30.387043 L684.740053,31.3507298 C685.200477,31.7235457 685.86815,31.6884254 686.287278,31.2692969 L687.269104,30.2874711 C687.688618,29.8683426 687.723739,29.2006701 687.350537,28.7398604 L686.38685,27.5496281 C686.866185,26.7735071 687.225879,25.9190408 687.442004,25.0062978 L688.963371,24.8461336 C689.553084,24.7839976 690,24.2869097 690,23.6944951 L690,22.3055049 C690,21.7130903 689.553084,21.2160024 688.963371,21.1538664 L688.963371,21.1538664 Z M679,27.0525402 C676.761947,27.0525402 674.947653,25.2382464 674.947653,23.000193 C674.947653,20.7617536 676.761947,18.9474598 679,18.9474598 C681.238439,18.9474598 683.052733,20.7617536 683.052733,23.000193 C683.052733,25.2382464 681.238439,27.0525402 679,27.0525402 L679,27.0525402 Z" id="Setting-Icon-Copy"></path>
                        </g>
                    </g>
                </g>
            </g>
        </g>
    </g>
</svg>
