<?xml version="1.0" encoding="utf-8"?>
<!-- Generator: Adobe Illustrator 22.0.1, SVG Export Plug-In . SVG Version: 6.00 Build 0)  -->
<svg version="1.1" id="Capa_1" xmlns="http://www.w3.org/2000/svg" xmlns:xlink="http://www.w3.org/1999/xlink" x="0px" y="0px"
	 viewBox="0 0 145 145" style="enable-background:new 0 0 145 145;" xml:space="preserve">
<style type="text/css">
	.st0{fill-rule:evenodd;clip-rule:evenodd;fill:#262626;}
	.st1{fill:#262626;}
</style>
<g>
	<path class="st0" d="M72.5,8.2C36.1,8.2,6.6,37.7,6.6,74.1c0,29.1,18.9,53.8,45.1,62.5c3.3,0.6,4.5-1.4,4.5-3.2
		c0-1.6-0.1-6.8-0.1-12.3c-18.3,4-22.2-7.8-22.2-7.8c-3-7.6-7.3-9.6-7.3-9.6c-6-4.1,0.5-4,0.5-4c6.6,0.5,10.1,6.8,10.1,6.8
		c5.9,10.1,15.4,7.2,19.2,5.5c0.6-4.3,2.3-7.2,4.2-8.8c-14.6-1.7-30-7.3-30-32.6c0-7.2,2.6-13.1,6.8-17.7c-0.7-1.7-2.9-8.4,0.6-17.4
		c0,0,5.5-1.8,18.1,6.8c5.3-1.5,10.9-2.2,16.5-2.2c5.6,0,11.2,0.8,16.5,2.2c12.6-8.5,18.1-6.8,18.1-6.8c3.6,9.1,1.3,15.8,0.6,17.4
		c4.2,4.6,6.8,10.5,6.8,17.7c0,25.3-15.4,30.9-30.1,32.5c2.4,2,4.5,6.1,4.5,12.2c0,8.8-0.1,15.9-0.1,18.1c0,1.8,1.2,3.8,4.5,3.2
		c26.2-8.7,45-33.4,45-62.5C138.4,37.7,108.9,8.2,72.5,8.2z"/>
	<path class="st1" d="M31.6,102.8c-0.1,0.3-0.7,0.4-1.1,0.2c-0.5-0.2-0.7-0.7-0.6-1c0.1-0.3,0.7-0.4,1.1-0.2
		C31.5,102.1,31.7,102.5,31.6,102.8L31.6,102.8z M30.8,102.2"/>
	<path class="st1" d="M34.2,105.8c-0.3,0.3-0.9,0.2-1.3-0.3c-0.4-0.5-0.5-1.1-0.2-1.4c0.3-0.3,0.9-0.2,1.4,0.3
		C34.5,104.9,34.6,105.5,34.2,105.8L34.2,105.8z M33.6,105.1"/>
	<path class="st1" d="M36.8,109.6c-0.4,0.3-1.1,0-1.5-0.6c-0.4-0.6-0.4-1.3,0-1.6c0.4-0.3,1.1,0,1.5,0.6
		C37.3,108.6,37.3,109.3,36.8,109.6L36.8,109.6z M36.8,109.6"/>
	<path class="st1" d="M40.4,113.3c-0.4,0.4-1.1,0.3-1.7-0.3c-0.6-0.5-0.7-1.3-0.4-1.7c0.4-0.4,1.1-0.3,1.7,0.3
		C40.6,112.1,40.8,112.9,40.4,113.3L40.4,113.3z M40.4,113.3"/>
	<path class="st1" d="M45.3,115.4c-0.2,0.5-0.9,0.7-1.6,0.5c-0.7-0.2-1.2-0.8-1.1-1.4c0.2-0.5,0.9-0.8,1.7-0.5
		C45,114.3,45.5,114.9,45.3,115.4L45.3,115.4z M45.3,115.4"/>
	<path class="st1" d="M50.7,115.8c0,0.5-0.6,1-1.4,1c-0.8,0-1.4-0.4-1.4-1c0-0.5,0.6-1,1.4-1C50.1,114.8,50.7,115.3,50.7,115.8
		L50.7,115.8z M50.7,115.8"/>
	<path class="st1" d="M55.7,114.9c0.1,0.5-0.5,1.1-1.2,1.2c-0.8,0.1-1.5-0.2-1.6-0.7c-0.1-0.5,0.5-1.1,1.2-1.2
		C54.9,114.1,55.6,114.4,55.7,114.9L55.7,114.9z M55.7,114.9"/>
</g>
</svg>
