<?xml version="1.0" encoding="utf-8"?>
<!-- Uploaded to: SVG Repo, www.svgrepo.com, Generator: SVG Repo Mixer Tools -->
<svg width="800px" height="800px" viewBox="0 0 48 48" xmlns="http://www.w3.org/2000/svg">
  <g id="Layer_2" data-name="Layer 2">
    <g id="invisible_box" data-name="invisible box">
      <rect width="48" height="48" fill="none"/>
    </g>
    <g id="Layer_7" data-name="Layer 7">
      <path d="M24,2.1,6,8.1V26.3c0,9.1,13.3,17.2,17,19.4a1.8,1.8,0,0,0,2,0c3.8-2.1,17-10.3,17-19.4V8.1ZM24,38a2,2,0,1,1,2-2A2,2,0,0,1,24,38Zm3.8-11a3.7,3.7,0,0,0-1.6,1.7A1.9,1.9,0,0,1,24.4,30h-.8a2.1,2.1,0,0,1-1.1-2.6,7.1,7.1,0,0,1,3.7-3.9A4.9,4.9,0,0,0,25,14.1a5.3,5.3,0,0,0-4.2,1A5.3,5.3,0,0,0,19,18.9a2,2,0,0,1-4,0,9,9,0,0,1,3.2-6.8,8.7,8.7,0,0,1,7.6-1.9,8.7,8.7,0,0,1,7,6.9A8.9,8.9,0,0,1,27.8,27Z"/>
    </g>
  </g>
</svg>