<?xml version="1.0" encoding="UTF-8" standalone="no"?>
<svg width="15px" height="16px" viewBox="0 0 15 16" version="1.1" xmlns="http://www.w3.org/2000/svg" xmlns:xlink="http://www.w3.org/1999/xlink" xmlns:sketch="http://www.bohemiancoding.com/sketch/ns">
    <!-- Generator: Sketch 3.3.1 (12002) - http://www.bohemiancoding.com/sketch -->
    <title>humidity_icon</title>
    <desc>Created with Sketch.</desc>
    <defs></defs>
    <g id="Preview-+-popup" stroke="none" stroke-width="1" sketch:type="MSPage">
        <g id="Subnavbar-+-preview-+-popup-OK" class="container_parent" sketch:type="MSArtboardGroup" transform="translate(-191.000000, -447.000000)" fill-opacity="0.87">
            <g id="Preview" class="container_children" sketch:type="MSLayerGroup" transform="translate(0.000000, 408.000000)">
                <g id="Sensor-data" transform="translate(74.000000, 6.000000)" sketch:type="MSShapeGroup">
                    <g id="HUMIDITY-PREVIEW" transform="translate(117.000000, 17.000000)">
                        <path d="M12.3019044,19.8416654 C12.2545941,17.7114547 10.5963248,16.0032027 8.55756766,16 C7.19398597,16.0008007 6.00320748,16.767052 5.34968259,17.9092228 C5.04376879,17.7314718 4.68853993,17.6277836 4.31085867,17.6277836 C3.13291012,17.629385 2.17547611,18.6078166 2.13257601,19.83526 C0.894888072,20.2604214 0.000801871032,21.4758545 0,22.9202822 C0,24.7158084 1.38843969,26.1754491 3.10163715,26.1754491 L3.10163715,26.1742481 L11.3011694,26.1742481 C13.013565,26.1742481 14.4,24.7158084 14.4,22.9194816 C14.4,21.487064 13.5207484,20.277636 12.3019044,19.8416654 L12.3019044,19.8416654 Z M11.3011694,25.0897263 L3.10003341,25.0897263 C1.95776813,25.0877246 1.03601737,24.1172997 1.03280989,22.9194816 C1.03280989,21.8441675 1.7813565,20.9566131 2.76364851,20.7872692 C2.90076846,20.7632488 3.02305379,20.6815793 3.10283996,20.5630786 C3.183428,20.4405745 3.21229536,20.2912476 3.18623455,20.1467247 C3.17059806,20.067057 3.16418309,19.991793 3.16418309,19.9185308 C3.16578684,19.2527649 3.67938523,18.7155082 4.31085867,18.7131061 C4.64363515,18.7131061 4.93952556,18.8652355 5.15402606,19.110644 C5.27350484,19.2495621 5.45673238,19.3152179 5.63354494,19.2771856 C5.80915469,19.2443577 5.95629803,19.1122454 6.01884397,18.936496 C6.40574674,17.8555772 7.39485466,17.0829205 8.55756766,17.0869239 C10.0542599,17.0881249 11.266288,18.3620077 11.2702974,19.935345 C11.2702974,20.0218185 11.2642833,20.1110944 11.2566656,20.2039734 C11.2294019,20.4834109 11.4142332,20.7380273 11.676445,20.7896712 C12.6378884,20.9762298 13.367591,21.8569784 13.3659873,22.9186809 C13.3651854,24.1172997 12.44143,25.0877246 11.3011694,25.0897263 L11.3011694,25.0897263 Z M3.85820247,30.3554021 C3.85820247,29.7512886 3.86902773,27.4100986 3.86902773,27.4080969 C3.87103241,27.1843067 3.7411293,26.9845369 3.54426996,26.9024671 C3.34741062,26.8195967 3.12288674,26.8708402 2.97734714,27.0321774 C2.97293685,27.0369814 2.43969262,27.6274834 1.90123622,28.3020567 C1.63140662,28.6415453 1.36037421,29.0014512 1.14627464,29.3309313 C0.940995657,29.6836311 0.757768126,29.910624 0.727297026,30.3554021 C0.728900768,31.2621728 1.42733044,31.9979983 2.29295022,32 C3.15656532,31.9979983 3.85820247,31.2609718 3.85820247,30.3554021 L3.85820247,30.3554021 Z M1.76171066,30.3782215 C1.80821918,30.1900616 2.3198129,29.4466296 2.79211493,28.8817495 C2.80334113,28.8629335 2.81697294,28.8473202 2.83060474,28.831707 C2.83020381,29.4410249 2.82459071,30.0779663 2.82459071,30.3554021 C2.82459071,30.6616624 2.58803876,30.9130761 2.29415302,30.9130761 C2.00708319,30.9130761 1.77534247,30.6756743 1.76171066,30.3782215 L1.76171066,30.3782215 Z M7.67911794,30.3554021 C7.67911794,29.7512886 7.69114601,27.4116999 7.69114601,27.4088976 C7.69234881,27.1855077 7.56164384,26.9869389 7.36638824,26.9024671 C7.16832609,26.8195967 6.94380221,26.8708402 6.79826261,27.0321774 C6.79465419,27.0377821 6.26221183,27.6274834 5.72215169,28.3048591 C5.45272302,28.6415453 5.18409622,29.0014512 4.96759105,29.3309313 C4.75990645,29.6836311 4.57707985,29.9122254 4.54901437,30.3554021 C4.54901437,31.2641745 5.24744404,31.9979983 6.11506849,31.9979983 C6.9786836,31.9979983 7.67911794,31.2609718 7.67911794,30.3554021 L7.67911794,30.3554021 Z M5.58022051,30.3810239 C5.62873371,30.1900616 6.14072837,29.4490317 6.61142666,28.8817495 C6.62385566,28.8629335 6.63788841,28.8473202 6.65071834,28.831707 C6.64751086,29.4410249 6.6435015,30.0779663 6.6435015,30.3554021 C6.6435015,30.6616624 6.40574674,30.9130761 6.11146007,30.9130761 C5.82759773,30.9130761 5.595857,30.6756743 5.58022051,30.3810239 L5.58022051,30.3810239 Z M11.2161711,26.9024671 C11.0209155,26.817595 10.793986,26.8676375 10.6480454,27.030576 C10.6452389,27.0369814 10.1119947,27.6274834 9.57474106,28.3016564 C9.30370865,28.6407446 9.03067157,29.0002502 8.81857668,29.3309313 C8.61009021,29.6836311 8.42806549,29.910624 8.39759439,30.3554021 C8.39759439,31.2609718 9.09923154,31.9979983 9.96284664,31.9979983 C10.8292683,31.9979983 11.5268961,31.2609718 11.5268961,30.3554021 C11.5268961,29.7512886 11.540127,27.4100986 11.540127,27.4080969 C11.5413298,27.1843067 11.4110257,26.9845369 11.2161711,26.9024671 L11.2161711,26.9024671 Z M10.4976946,30.3554021 C10.495289,30.6616624 10.2583361,30.9106741 9.96284664,30.9130761 C9.67858336,30.9106741 9.44604076,30.674073 9.43240895,30.3798228 C9.48052122,30.1900616 9.99131306,29.4466296 10.4624123,28.8817495 C10.4744404,28.8637342 10.488874,28.8473202 10.5001002,28.831707 C10.4984965,29.4410249 10.4976946,30.0747635 10.4976946,30.3554021 L10.4976946,30.3554021 Z" id="humidity_icon"></path>
                    </g>
                </g>
            </g>
        </g>
    </g>
</svg>
