<svg xmlns="http://www.w3.org/2000/svg" viewBox="0 0 11.41 11.41"><title>sck-21-icons</title><path d="M8.72,3.24A2.27,2.27,0,0,0,6.51,1,2.19,2.19,0,0,0,4.61,2.1,1.22,1.22,0,0,0,4,1.94a1.32,1.32,0,0,0-1.29,1.3A1.92,1.92,0,0,0,1.45,5.07,1.88,1.88,0,0,0,3.28,7H8.13A1.88,1.88,0,0,0,10,5.06,1.92,1.92,0,0,0,8.72,3.24M8.13,6.35H3.28A1.25,1.25,0,0,1,2.06,5.06a1.26,1.26,0,0,1,1-1.26,0.31,0.31,0,0,0,.2-0.13,0.34,0.34,0,0,0,0-.24,0.94,0.94,0,0,1,0-.14A0.7,0.7,0,0,1,4,2.58a0.65,0.65,0,0,1,.5.24,0.29,0.29,0,0,0,.28.1A0.31,0.31,0,0,0,5,2.71a1.6,1.6,0,0,1,1.5-1.09A1.64,1.64,0,0,1,8.11,3.3a1.23,1.23,0,0,1,0,.16,0.32,0.32,0,0,0,.25.35,1.27,1.27,0,0,1,1,1.26A1.25,1.25,0,0,1,8.13,6.35M3.73,9.46c0-.36,0-1.74,0-1.74a0.32,0.32,0,0,0-.19-0.3,0.29,0.29,0,0,0-.33.08s-0.32.35-.63,0.75c-0.16.2-.32,0.41-0.45,0.61a1.25,1.25,0,0,0-.25.6,1,1,0,0,0,.92,1,1,1,0,0,0,.93-1m-1.24,0A4.46,4.46,0,0,1,3.1,8.59l0,0c0,0.36,0,.74,0,0.9a0.31,0.31,0,1,1-.63,0M6,9.46c0-.36,0-1.74,0-1.74a0.32,0.32,0,0,0-.19-0.3,0.29,0.29,0,0,0-.34.08s-0.32.35-.63,0.75c-0.16.2-.32,0.41-0.45,0.61a1.22,1.22,0,0,0-.25.6A0.93,0.93,0,1,0,6,9.46m-1.24,0a4.56,4.56,0,0,1,.61-0.89l0,0c0,0.36,0,.74,0,0.9a0.31,0.31,0,1,1-.63,0M8.08,7.42a0.29,0.29,0,0,0-.34.08s-0.32.35-.63,0.75a7,7,0,0,0-.45.61,1.21,1.21,0,0,0-.25.6,0.93,0.93,0,1,0,1.85,0c0-.36,0-1.74,0-1.74a0.32,0.32,0,0,0-.19-0.3m-0.42,2a0.31,0.31,0,1,1-.63,0,4.51,4.51,0,0,1,.61-0.89l0,0c0,0.36,0,.74,0,0.9"/><rect width="11.41" height="11.41" style="fill:none"/></svg>