<?xml version="1.0" encoding="UTF-8" standalone="no"?>
<svg width="14px" height="14px" viewBox="0 0 14 14" version="1.1" xmlns="http://www.w3.org/2000/svg" xmlns:xlink="http://www.w3.org/1999/xlink" xmlns:sketch="http://www.bohemiancoding.com/sketch/ns">
    <!-- Generator: Sketch 3.3.1 (12002) - http://www.bohemiancoding.com/sketch -->
    <title>Kit_details_icon</title>
    <desc>Created with Sketch.</desc>
    <defs></defs>
    <g id="Owner-detail" stroke="none" stroke-width="1" fill="none" fill-rule="evenodd" sketch:type="MSPage">
        <g id="my-owner-detail" sketch:type="MSArtboardGroup" transform="translate(-164.000000, -895.000000)" fill="#4F8390">
            <g id="Kit-Details" sketch:type="MSLayerGroup" transform="translate(0.000000, 768.000000)">
                <g id="Group" transform="translate(164.000000, 64.000000)" sketch:type="MSShapeGroup">
                    <g id="Kit-type" transform="translate(0.000000, 61.000000)">
                        <g id="kit-detail-icon" transform="translate(0.000000, 1.500000)">
                            <path d="M7,14.5 C10.8659932,14.5 14,11.3659932 14,7.5 C14,3.63400675 10.8659932,0.5 7,0.5 C3.13400675,0.5 0,3.63400675 0,7.5 C0,11.3659932 3.13400675,14.5 7,14.5 Z M7,13.5 C10.3137085,13.5 13,10.8137085 13,7.5 C13,4.1862915 10.3137085,1.5 7,1.5 C3.6862915,1.5 1,4.1862915 1,7.5 C1,10.8137085 3.6862915,13.5 7,13.5 Z M7,12 C9.48528137,12 11.5,9.98528137 11.5,7.5 C11.5,5.01471863 9.48528137,3 7,3 C4.51471863,3 2.5,5.01471863 2.5,7.5 C2.5,9.98528137 4.51471863,12 7,12 Z" id="Kit_details_icon"></path>
                        </g>
                    </g>
                </g>
            </g>
        </g>
    </g>
</svg>