<?xml version="1.0" encoding="UTF-8" standalone="no"?>
<svg width="16px" height="16px" viewBox="0 0 16 16" version="1.1" xmlns="http://www.w3.org/2000/svg" xmlns:xlink="http://www.w3.org/1999/xlink" xmlns:sketch="http://www.bohemiancoding.com/sketch/ns">
    <!-- Generator: Sketch 3.3.1 (12002) - http://www.bohemiancoding.com/sketch -->
    <title>Light_icon</title>
    <desc>Created with Sketch.</desc>
    <defs></defs>
    <g id="Preview-+-popup" stroke="none" stroke-width="1" sketch:type="MSPage">
        <g id="Subnavbar-+-preview-+-popup-OK" class="container_parent" sketch:type="MSArtboardGroup" transform="translate(-334.000000, -447.000000)" fill-opacity="0.87">
            <g id="Preview" class="container_children" sketch:type="MSLayerGroup" transform="translate(0.000000, 408.000000)">
                <g id="Sensor-data" transform="translate(74.000000, 6.000000)" sketch:type="MSShapeGroup">
                    <g id="LIGHT-PREVIEW" transform="translate(260.000000, 17.000000)">
                        <path d="M7.712,19.7170526 C5.51288889,19.7170526 3.73155556,21.4922105 3.73155556,23.6833684 C3.73155556,25.8732632 5.51288889,27.6488421 7.712,27.6488421 C9.908,27.6488421 11.6911111,25.8732632 11.6911111,23.6833684 C11.6911111,21.4922105 9.90977778,19.7170526 7.712,19.7170526 M7.712,26.6412632 C6.07244444,26.6374737 4.74666667,25.3170526 4.74088889,23.6842105 C4.74488889,22.0505263 6.07244444,20.7284211 7.712,20.7250526 C9.35022222,20.7284211 10.6751111,22.0505263 10.6795556,23.6842105 C10.6751111,25.3170526 9.35022222,26.6374737 7.712,26.6412632 M7.712,19.4501053 C7.99155556,19.4501053 8.21688889,19.2252632 8.21688889,18.9473684 L8.21688889,16.5027368 C8.21555556,16.2235789 7.99022222,16 7.712,16 C7.432,16 7.20533333,16.2256842 7.20533333,16.504 L7.20533333,18.9490526 C7.20533333,19.2252632 7.432,19.4501053 7.712,19.4501053 M9.33555556,19.7734737 C9.39866667,19.7991579 9.46577778,19.8117895 9.52933333,19.8126316 C9.728,19.8126316 9.91377778,19.6951579 9.99733333,19.5002105 L10.9337778,17.2425263 C11.0408889,16.984 10.9191111,16.6905263 10.6631111,16.584 C10.4035556,16.4783158 10.108,16.5987368 10.0017778,16.8564211 L9.06177778,19.1162105 C8.95555556,19.3717895 9.07866667,19.6677895 9.33555556,19.7734737 M10.7133333,20.6892632 C10.8124444,20.7886316 10.9426667,20.8391579 11.0715556,20.8391579 C11.2008889,20.8391579 11.328,20.7886316 11.4293333,20.6892632 L13.1635556,18.9591579 C13.3591111,18.7650526 13.3591111,18.4437895 13.1635556,18.2467368 C12.9648889,18.0513684 12.6431111,18.0513684 12.4471111,18.2488421 L10.7133333,19.9764211 C10.5155556,20.1743158 10.5155556,20.4934737 10.7133333,20.6892632 M11.6342222,22.0635789 C11.7142222,22.2572632 11.904,22.3722105 12.1022222,22.3722105 C12.1666667,22.3722105 12.2315556,22.3616842 12.2955556,22.3338947 L14.56,21.3978947 C14.8182222,21.2917895 14.9408889,20.9970526 14.8346667,20.7402105 C14.7266667,20.4837895 14.4306667,20.3608421 14.1742222,20.4677895 L11.908,21.4042105 C11.6506667,21.5103158 11.5288889,21.8075789 11.6342222,22.0635789 M14.9155556,23.176 L12.4635556,23.176 C12.184,23.176 11.9582222,23.4033684 11.9582222,23.6804211 C11.9582222,23.96 12.184,24.1848421 12.4635556,24.1848421 L14.9173333,24.1844211 C15.196,24.1844211 15.4217778,23.9583158 15.4217778,23.6804211 C15.4217778,23.4021053 15.1951111,23.1751579 14.9155556,23.176 M14.5635556,25.9621053 L12.2964444,25.0277895 C12.0386667,24.9208421 11.7417778,25.0421053 11.636,25.2997895 C11.5306667,25.5574737 11.652,25.8522105 11.9097778,25.9591579 L14.1751111,26.8917895 C14.2382222,26.9183158 14.3053333,26.9305263 14.3697778,26.9305263 C14.5684444,26.9305263 14.7564444,26.8143158 14.8373333,26.6197895 C14.9426667,26.3642105 14.8191111,26.0665263 14.5635556,25.9621053 M11.432,26.6724211 C11.2337778,26.4757895 10.9137778,26.4757895 10.716,26.6736842 C10.5191111,26.8724211 10.52,27.1903158 10.716,27.3856842 L12.4524444,29.1124211 C12.5511111,29.2117895 12.6804444,29.2623158 12.8097778,29.2623158 C12.9391111,29.2623158 13.0697778,29.2117895 13.168,29.1124211 C13.364,28.9162105 13.364,28.5962105 13.168,28.3995789 L11.432,26.6724211 M10.0017778,27.8627368 C9.89555556,27.6058947 9.59822222,27.4850526 9.34,27.5903158 C9.08311111,27.6981053 8.96,27.9924211 9.06577778,28.2496842 L10.0066667,30.5069474 C10.0866667,30.7014737 10.276,30.8181053 10.4751111,30.8181053 C10.54,30.8181053 10.6057778,30.8058947 10.6688889,30.7806316 C10.9262222,30.6741053 11.0484444,30.3793684 10.9426667,30.12 L10.0017778,27.8627368 M7.71688889,27.9157895 C7.43644444,27.9157895 7.21111111,28.1410526 7.21111111,28.4185263 L7.21333333,30.8631579 C7.21333333,31.1410526 7.44177778,31.3663158 7.71777778,31.3663158 C7.99866667,31.3663158 8.224,31.1410526 8.224,30.8631579 L8.22266667,28.4181053 C8.22266667,28.1410526 7.99555556,27.9145263 7.71688889,27.9157895 M6.08977778,27.5957895 C5.83244444,27.4892632 5.53644444,27.6113684 5.42977778,27.8677895 L4.49555556,30.1267368 C4.38711111,30.3848421 4.51022222,30.6804211 4.76711111,30.7852632 C4.83244444,30.8130526 4.89688889,30.8227368 4.96177778,30.8227368 C5.16,30.8227368 5.34844444,30.7069474 5.42844444,30.5107368 L6.36533333,28.2517895 C6.47288889,27.9953684 6.34977778,27.7018947 6.08977778,27.5957895 M4.712,26.6783158 C4.51466667,26.4821053 4.19466667,26.4829474 3.99555556,26.6812632 L2.26444444,28.4096842 C2.06711111,28.6075789 2.06844444,28.9258947 2.26666667,29.1237895 C2.36444444,29.2189474 2.49244444,29.2703158 2.62311111,29.2703158 C2.75422222,29.2703158 2.88177778,29.2189474 2.98044444,29.1225263 L4.71333333,27.3936842 C4.90977778,27.1945263 4.90977778,26.8770526 4.712,26.6783158 M3.79066667,25.3094737 C3.684,25.0534737 3.38755556,24.9301053 3.12977778,25.0366316 L0.865333333,25.9747368 C0.605777778,26.0816842 0.485333333,26.3776842 0.592888889,26.6328421 C0.672444444,26.8294737 0.861333333,26.9444211 1.05866667,26.9444211 C1.12311111,26.9444211 1.18933333,26.9305263 1.252,26.9056842 L3.51688889,25.968 C3.77466667,25.8602105 3.89644444,25.5637895 3.79066667,25.3094737 M3.46311111,23.6901053 C3.46311111,23.4117895 3.23866667,23.1869474 2.95822222,23.1869474 L0.505777778,23.1915789 C0.227111111,23.1915789 0,23.4164211 0,23.6943158 C0,23.9734737 0.228,24.1987368 0.505777778,24.1978947 L2.96088889,24.1953684 C3.23866667,24.1953684 3.46488889,23.968 3.46311111,23.6901053 M0.856444444,21.4105263 L3.12577778,22.3435789 C3.18711111,22.3696842 3.25377778,22.3835789 3.31688889,22.3835789 C3.51644444,22.3835789 3.70533333,22.2652632 3.78533333,22.0698947 C3.89288889,21.8147368 3.76977778,21.5178947 3.51155556,21.4126316 L1.24488889,20.4804211 C0.984,20.3738947 0.689333333,20.4968421 0.582222222,20.7541053 C0.476444444,21.0117895 0.599555556,21.3052632 0.856444444,21.4105263 M3.98844444,20.6972632 C4.08577778,20.7949474 4.21422222,20.8437895 4.34488889,20.8437895 C4.47422222,20.8437895 4.60266667,20.7949474 4.70222222,20.6951579 C4.90044444,20.4997895 4.89866667,20.1806316 4.7,19.9831579 L2.96355556,18.2589474 C2.76666667,18.0614737 2.44488889,18.0614737 2.24977778,18.2597895 C2.052,18.4572632 2.05377778,18.7747368 2.25155556,18.9722105 L3.98844444,20.6972632 M5.41688889,19.5048421 C5.49866667,19.6985263 5.68488889,19.8164211 5.88266667,19.8164211 C5.948,19.8164211 6.01288889,19.8021053 6.07644444,19.7768421 C6.33644444,19.6698947 6.45911111,19.3738947 6.35155556,19.1187368 L5.40977778,16.8614737 C5.30222222,16.6050526 5.00533333,16.4829474 4.74844444,16.5898947 C4.49022222,16.6985263 4.368,16.9932632 4.47466667,17.2488421 L5.41688889,19.5048421" id="Light_icon"></path>
                    </g>
                </g>
            </g>
        </g>
    </g>
</svg>
