<?xml version="1.0" encoding="UTF-8" standalone="no"?>
<svg width="9px" height="12px" viewBox="0 0 9 12" version="1.1" xmlns="http://www.w3.org/2000/svg" xmlns:xlink="http://www.w3.org/1999/xlink" xmlns:sketch="http://www.bohemiancoding.com/sketch/ns">
    <!-- Generator: Sketch 3.3.1 (12002) - http://www.bohemiancoding.com/sketch -->
    <title>Location_icon</title>
    <desc>Created with Sketch.</desc>
    <defs></defs>
    <g id="Preview-+-popup" stroke="none" stroke-width="1" fill="none" fill-rule="evenodd" sketch:type="MSPage">
        <g id="Subnavbar-+-preview-+-popup-OK-2" sketch:type="MSArtboardGroup" transform="translate(-398.000000, -174.000000)" fill="#124B50">
            <g id="Popup" sketch:type="MSLayerGroup" transform="translate(388.500000, 92.000000)">
                <g id="Location" transform="translate(9.000000, 80.000000)" sketch:type="MSShapeGroup">
                    <path d="M4.7,2 C2.36,2 0.5,3.86 0.5,6.2 C0.5,9.32 4.7,14 4.7,14 C4.7,14 8.9,9.32 8.9,6.2 C8.9,3.86 7.04,2 4.7,2 L4.7,2 L4.7,2 Z M4.7,7.7 C3.86,7.7 3.2,7.04 3.2,6.2 C3.2,5.36 3.86,4.7 4.7,4.7 C5.54,4.7 6.2,5.36 6.2,6.2 C6.2,7.04 5.54,7.7 4.7,7.7 L4.7,7.7 L4.7,7.7 Z" id="Location_icon"></path>
                </g>
            </g>
        </g>
    </g>
</svg>