<?xml version="1.0" encoding="UTF-8" standalone="no"?>
<svg width="15px" height="14px" viewBox="0 0 15 14" version="1.1" xmlns="http://www.w3.org/2000/svg" xmlns:xlink="http://www.w3.org/1999/xlink" xmlns:sketch="http://www.bohemiancoding.com/sketch/ns">
    <!-- Generator: Sketch 3.3.1 (12002) - http://www.bohemiancoding.com/sketch -->
    <title>Shape</title>
    <desc>Created with Sketch.</desc>
    <defs></defs>
    <g id="Owner-detail" stroke="none" stroke-width="1" fill="none" fill-rule="evenodd" sketch:type="MSPage">
        <g id="my-owner-detail" sketch:type="MSArtboardGroup" transform="translate(-632.000000, -894.000000)" fill="#4F8390">
            <g id="Kit-Details" sketch:type="MSLayerGroup" transform="translate(0.000000, 768.000000)">
                <g id="Mac-Adress" transform="translate(632.500000, 124.000000)" sketch:type="MSShapeGroup">
                    <g id="Shape" transform="translate(0.000000, 2.000000)">
                        <path d="M7,6.58 C6.23,6.58 5.6,7.21 5.6,7.98 C5.6,8.75 6.23,9.38 7,9.38 C7.77,9.38 8.4,8.75 8.4,7.98 C8.4,7.21 7.77,6.58 7,6.58 L7,6.58 L7,6.58 Z M11.2,7.98 C11.2,5.67 9.31,3.78 7,3.78 C4.69,3.78 2.8,5.67 2.8,7.98 C2.8,9.52 3.64,10.85 4.9,11.62 L5.6,10.43 C4.76,9.94 4.2,9.03 4.2,8.05 C4.2,6.51 5.46,5.25 7,5.25 C8.54,5.25 9.8,6.51 9.8,8.05 C9.8,9.1 9.24,10.01 8.4,10.43 L9.1,11.62 C10.36,10.85 11.2,9.52 11.2,7.98 L11.2,7.98 L11.2,7.98 Z M7,0.98 C3.15,0.98 0,4.13 0,7.98 C0,10.57 1.4,12.81 3.5,14 L4.2,12.81 C2.52,11.83 1.4,10.01 1.4,7.98 C1.4,4.9 3.92,2.38 7,2.38 C10.08,2.38 12.6,4.9 12.6,7.98 C12.6,10.08 11.48,11.83 9.8,12.81 L10.5,14 C12.6,12.81 14,10.5 14,7.98 C14,4.13 10.85,0.98 7,0.98 L7,0.98 L7,0.98 Z"></path>
                    </g>
                </g>
            </g>
        </g>
    </g>
</svg>