<?xml version="1.0" encoding="UTF-8" standalone="no"?>
<svg width="14px" height="14px" viewBox="0 0 14 14" version="1.1" xmlns="http://www.w3.org/2000/svg" xmlns:xlink="http://www.w3.org/1999/xlink" xmlns:sketch="http://www.bohemiancoding.com/sketch/ns">
    <!-- Generator: Sketch 3.3.1 (12002) - http://www.bohemiancoding.com/sketch -->
    <title>map icon</title>
    <desc>Created with Sketch.</desc>
    <defs></defs>
    <g id="Map-elements" stroke="none" stroke-width="1" sketch:type="MSPage">
        <g sketch:type="MSArtboardGroup" transform="translate(-79.000000, -26.000000)" id="map">
            <g sketch:type="MSLayerGroup">
                <g id="Menu" transform="translate(70.196078, 0.000000)" sketch:type="MSShapeGroup">
                    <g id="Map" transform="translate(0.803922, 0.000000)">
                        <path d="M15,26 C11.15,26 8,29.15 8,33 C8,36.85 11.15,40 15,40 C18.85,40 22,36.85 22,33 C22,29.15 18.85,26 15,26 L15,26 L15,26 Z M14.3,38.53 C11.57,38.18 9.4,35.8 9.4,33 C9.4,32.58 9.47,32.16 9.54,31.74 L12.9,35.1 L12.9,35.8 C12.9,36.57 13.53,37.2 14.3,37.2 L14.3,38.53 L14.3,38.53 Z M19.13,36.78 C18.92,36.22 18.43,35.8 17.8,35.8 L17.1,35.8 L17.1,33.7 C17.1,33.28 16.82,33 16.4,33 L12.2,33 L12.2,31.6 L13.6,31.6 C14.02,31.6 14.3,31.32 14.3,30.9 L14.3,29.5 L15.7,29.5 C16.47,29.5 17.1,28.87 17.1,28.1 L17.1,27.82 C19.13,28.66 20.6,30.69 20.6,33 C20.6,34.47 20.04,35.8 19.13,36.78 L19.13,36.78 L19.13,36.78 Z" id="map-icon"></path>
                    </g>
                </g>
            </g>
        </g>
    </g>
</svg>
