<?xml version="1.0" encoding="utf-8"?>
<!-- Generator: Adobe Illustrator 16.0.0, SVG Export Plug-In . SVG Version: 6.00 Build 0)  -->
<!DOCTYPE svg PUBLIC "-//W3C//DTD SVG 1.1//EN" "http://www.w3.org/Graphics/SVG/1.1/DTD/svg11.dtd">
<svg version="1.1" id="Layer_1" xmlns:sketch="http://www.bohemiancoding.com/sketch/ns"
	 xmlns="http://www.w3.org/2000/svg" xmlns:xlink="http://www.w3.org/1999/xlink" x="0px" y="0px" width="15.307px"
	 height="12.236px" viewBox="2.044 1.634 15.307 12.236" enable-background="new 2.044 1.634 15.307 12.236" xml:space="preserve">
<title>nets_icons</title>
<desc>Created with Sketch.</desc>
<g id="Preview-_x2B_-popup" sketch:type="MSPage">
	<g id="Subnavbar-_x2B_-preview-_x2B_-popup-OK" transform="translate(-934.000000, -447.000000)" sketch:type="MSArtboardGroup">
		<g id="Preview" transform="translate(0.000000, 408.000000)" sketch:type="MSLayerGroup">
			<g id="Sensor-data" transform="translate(74.000000, 6.000000)" sketch:type="MSShapeGroup">
				<g id="NETS-PREVIEW" transform="translate(860.000000, 17.000000)">
					<path id="nets_icons" fill="#4F8390" fill-opacity="0.87" d="M12.993,22.33l4.357-2.349l-4.357-2.348v1.455
						c-1.69,0.199-2.834,1.42-3.93,2.666c0.313,0.378,0.62,0.763,0.923,1.145c0.112,0.14,0.222,0.278,0.333,0.415
						c0.461-0.561,0.913-1.077,1.349-1.475c0.51-0.476,0.968-0.75,1.324-0.854V22.33L12.993,22.33z M10.611,24.556
						c-1.095-1.277-2.202-2.883-3.468-4.058c-0.841-0.77-1.82-1.434-3.079-1.451H2.044v1.885h2.021
						c0.559-0.065,1.642,0.717,2.718,2.031c1.094,1.275,2.2,2.882,3.466,4.058c0.765,0.697,1.642,1.306,2.745,1.425v1.424
						l4.357-2.349l-4.357-2.349v1.364C12.391,26.354,11.501,25.641,10.611,24.556L10.611,24.556z"/>
				</g>
			</g>
		</g>
	</g>
</g>
</svg>
