<?xml version="1.0" encoding="UTF-8" standalone="no"?>
<svg
   viewBox="0 0 576 512"
   version="1.1"
   id="svg1"
   sodipodi:docname="new-2.svg"
   inkscape:version="1.3 (0e150ed, 2023-07-21)"
   xmlns:inkscape="http://www.inkscape.org/namespaces/inkscape"
   xmlns:sodipodi="http://sodipodi.sourceforge.net/DTD/sodipodi-0.dtd"
   xmlns="http://www.w3.org/2000/svg"
   xmlns:svg="http://www.w3.org/2000/svg">
  <defs
     id="defs1" />
  <sodipodi:namedview
     id="namedview1"
     pagecolor="#ffffff"
     bordercolor="#666666"
     borderopacity="1.0"
     inkscape:showpageshadow="2"
     inkscape:pageopacity="0.0"
     inkscape:pagecheckerboard="0"
     inkscape:deskcolor="#d1d1d1"
     inkscape:zoom="0.4609375"
     inkscape:cx="288.54237"
     inkscape:cy="256"
     inkscape:window-width="1280"
     inkscape:window-height="449"
     inkscape:window-x="0"
     inkscape:window-y="98"
     inkscape:window-maximized="0"
     inkscape:current-layer="svg1" />
  <!--!Font Awesome Free 6.6.0 by @fontawesome - https://fontawesome.com License - https://fontawesome.com/license/free Copyright 2024 Fonticons, Inc.-->
  <g
     id="path21"
     transform="translate(0,40)"
     style="fill:#ffffff">
    <path
       style="color:#000000;display:none;fill:#ffffff;stroke-linejoin:round;-inkscape-stroke:none"
       d="m 288,0 c 13.3,0 24,10.7 24,24 v 48 c 0,13.3 -10.7,24 -24,24 -13.3,0 -24,-10.7 -24,-24 V 24 C 264,10.7 274.7,0 288,0 Z"
       id="path33" />
    <path
       style="color:#000000;display:inline;fill:#ffffff;stroke-linejoin:round;-inkscape-stroke:none"
       d="m 288,14.400391 c 5.57669,0 9.59961,4.022923 9.59961,9.599609 v 48 c 0,5.576686 -4.02292,9.599609 -9.59961,9.599609 -5.57669,0 -9.59961,-4.022923 -9.59961,-9.599609 V 24 c 0,-5.576686 4.02292,-9.599609 9.59961,-9.599609 z"
       id="path32" />
    <path
       style="color:#000000;display:none;fill:#ffffff;stroke-linejoin:round;-inkscape-stroke:none"
       d="m 288,-14.400391 c -21.02329,0 -38.40039,17.377104 -38.40039,38.400391 v 48 c 0,21.023287 17.3771,38.40039 38.40039,38.40039 21.02329,0 38.40039,-17.377103 38.40039,-38.40039 V 24 c 0,-21.023287 -17.3771,-38.400391 -38.40039,-38.400391 z"
       id="path23" />
  </g>
  <g
     id="path20"
     style="fill:#ffffff">
    <path
       style="color:#000000;display:none;fill:#ffffff;stroke-linejoin:round;-inkscape-stroke:none"
       d="m 64,448 c 0,0 0,0 0,0 h 448 c 0,0 0,0 0,0 h 32 c 17.7,0 32,14.3 32,32 0,17.7 -14.3,32 -32,32 H 32 C 14.3,512 0,497.7 0,480 0,462.3 14.3,448 32,448 Z"
       id="path31" />
    <path
       style="color:#000000;display:inline;fill:#ffffff;stroke-linejoin:round;-inkscape-stroke:none"
       d="m 32,418.40039 h 32 448 32 c 9.94406,0 17.59961,7.65555 17.59961,17.59961 0,9.94406 -7.65555,17.59961 -17.59961,17.59961 H 32 c -9.944058,0 -17.599609,-7.65555 -17.599609,-17.59961 0,-9.94406 7.655551,-17.59961 17.599609,-17.59961 z"
       id="path30" />
    <path
       style="color:#000000;display:none;fill:#ffffff;stroke-linejoin:round;-inkscape-stroke:none"
       d="m 32,433.59961 c -25.4559065,0 -46.400391,20.94448 -46.400391,46.40039 0,25.45591 20.9444845,46.40039 46.400391,46.40039 h 512 c 25.45591,0 46.40039,-20.94448 46.40039,-46.40039 0,-25.45591 -20.94448,-46.40039 -46.40039,-46.40039 H 512 64 Z"
       id="path25" />
  </g>
  <g
     id="path1"
     style="fill:#ffffff">
    <path
       style="color:#000000;display:none;fill:#ffffff;stroke-linejoin:round;-inkscape-stroke:none"
       d="m 499.6,11.3 c 6.7,-10.7 20.5,-14.5 31.7,-8.5 11.2,6 15.8,19.5 10.6,31 L 404.8,338.6 c 2.2,2.3 4.3,4.7 6.3,7.1 L 508.3,291 c 10.5,-5.9 23.6,-3.1 30.9,6.4 7.3,9.5 6.3,23 -2.2,31.5 l -87,87 h -71.4 c -13.2,-37.3 -48.7,-64 -90.5,-64 -41.8,0 -77.4,26.7 -90.5,64 H 118 L 42.3,363.7 C 32.6,357 29.2,344.1 34.4,333.4 39.6,322.7 51.8,317.5 63.1,321 l 97.2,30.4 c 3,-3.9 6.1,-7.7 9.4,-11.3 L 107.4,236.3 c -6.1,-10.1 -3.9,-23.1 5.1,-30.7 9,-7.6 22.2,-7.5 31.1,0.1 L 246,293.6 c 1.5,-0.4 3,-0.8 4.5,-1.1 l 13.6,-142.7 c 1.2,-12.3 11.5,-21.7 23.9,-21.7 12.4,0 22.7,9.4 23.9,21.7 l 13.5,141.9 z"
       id="path29" />
    <path
       style="color:#000000;display:inline;fill:#ffffff;stroke-linejoin:round;-inkscape-stroke:none"
       d="m 520.95703,14.359375 c 1.18891,0.141465 2.38572,0.514811 3.54297,1.134766 4.72125,2.52924 6.42262,7.633015 4.2793,12.373046 a 14.40144,14.40144 0 0 0 -0.0117,0.02539 L 391.66797,332.69336 a 14.40144,14.40144 0 0 0 2.72656,15.85937 c 1.90522,1.99183 3.79371,4.14659 5.64258,6.36524 a 14.40144,14.40144 0 0 0 18.125,3.33203 l 97.19141,-54.69531 c 4.3445,-2.4412 9.36621,-1.36503 12.42773,2.61914 2.89689,3.76992 2.54576,9.03431 -0.96289,12.54297 L 444.03516,401.5 h -55.83789 c -17.56477,-37.80631 -55.8316,-64 -100.09766,-64 -44.25715,0 -82.60787,26.16809 -100.11524,64 H 122.48438 L 50.484375,351.85156 c -3.882952,-2.68204 -5.265383,-7.77003 -3.132813,-12.1582 2.131089,-4.38513 6.835587,-6.37704 11.486329,-4.9375 6.46e-4,2e-4 0.0013,-2e-4 0.002,0 L 156.002,365.14258 a 14.40144,14.40144 0 0 0 15.71094,-4.96289 c 2.83318,-3.68313 5.67691,-7.15908 8.60156,-10.34961 a 14.40144,14.40144 0 0 0 1.73242,-17.14063 L 119.74609,228.88867 a 14.40144,14.40144 0 0 0 -0.0195,-0.0332 c -2.4809,-4.10772 -1.63486,-9.13004 2.06446,-12.25391 3.64962,-3.08191 8.8566,-3.02569 12.45703,0.0488 l 102.37304,87.87695 a 14.40144,14.40144 0 0 0 13.08985,2.98633 c 1.5,-0.4 2.71671,-0.71326 3.61328,-0.89258 a 14.40144,14.40144 0 0 0 11.51172,-12.75586 l 13.5957,-142.66796 c 2.1e-4,-0.002 0.002,-0.004 0.002,-0.006 C 278.93193,146.11474 282.8796,142.5 288,142.5 c 5.12107,0 9.0689,3.61566 9.56641,8.69336 l 0.002,0.004 13.49609,141.86718 a 14.40144,14.40144 0 0 0 26.56641,6.23438 L 511.80469,18.941406 c 5.1e-4,-8.23e-4 0.001,-0.0011 0.002,-0.002 2.09544,-3.344521 5.58455,-5.004368 9.15039,-4.580078 z"
       id="path28" />
    <path
       style="color:#000000;display:none;fill:#ffffff;stroke-linejoin:round;-inkscape-stroke:none"
       d="m 517.04297,-14.255859 c -11.81205,0.961191 -23.0195,7.3275525 -29.64844,17.9140621 a 14.40144,14.40144 0 0 0 -0.0254,0.042969 L 335.69141,247.8457 326.23437,148.43555 a 14.40144,14.40144 0 0 0 -0.002,-0.0332 C 324.32804,128.88243 307.6774,113.69922 288,113.69922 c -19.6774,0 -36.32804,15.18321 -38.23242,34.70312 a 14.40144,14.40144 0 0 0 -0.002,0.0312 l -11.40234,119.63282 -85.38476,-73.29297 a 14.40144,14.40144 0 0 0 -0.0274,-0.0234 c -14.19955,-12.12546 -35.39183,-12.27042 -49.74219,-0.15234 -14.300662,12.07611 -17.853849,33.05422 -8.134761,49.14648 l 53.324221,88.8457 -81.000003,-25.33398 a 14.40144,14.40144 0 0 0 -0.03711,-0.0117 c -17.948605,-5.5593 -37.643504,2.84708 -45.912109,19.86133 -8.267419,17.0118 -2.851013,37.72541 12.666015,48.44336 a 14.40144,14.40144 0 0 0 0.0098,0.006 l 75.701167,52.19922 A 14.40144,14.40144 0 0 0 118,430.30078 h 79.59961 a 14.40144,14.40144 0 0 0 13.58594,-9.62891 c 11.10916,-31.63143 41.24615,-54.37109 76.91406,-54.37109 35.66791,0 65.71367,22.71964 76.92578,54.40234 a 14.40144,14.40144 0 0 0 13.57422,9.59766 H 450 a 14.40144,14.40144 0 0 0 10.18164,-4.21875 l 87,-87 c 13.49133,-13.49133 15.1406,-35.22697 3.4375,-50.45703 -11.53846,-15.01581 -32.71757,-19.53848 -49.37305,-10.17969 a 14.40144,14.40144 0 0 0 -0.008,0.006 L 429.48242,318.83008 555.02148,39.732422 c 8.25668,-18.259945 0.75686,-40.15425251 -16.92187,-49.6250001 -6.66412,-3.5700639 -13.96941,-4.9399959 -21.05664,-4.3632809 z"
       id="path27" />
  </g>
</svg>
