<?xml version="1.0" encoding="UTF-8" standalone="no"?>
<svg width="9px" height="16px" viewBox="0 0 9 16" version="1.1" xmlns="http://www.w3.org/2000/svg" xmlns:xlink="http://www.w3.org/1999/xlink" xmlns:sketch="http://www.bohemiancoding.com/sketch/ns">
    <!-- Generator: Sketch 3.3.1 (12002) - http://www.bohemiancoding.com/sketch -->
    <title>no2_icon</title>
    <desc>Created with Sketch.</desc>
    <defs></defs>
    <g id="Preview-+-popup" stroke="none" stroke-width="1" sketch:type="MSPage">
        <g id="Subnavbar-+-preview-+-popup-OK" class="container_parent" sketch:type="MSArtboardGroup" transform="translate(-794.000000, -447.000000)" fill-opacity="0.87">
            <g id="Preview" class="container_children" sketch:type="MSLayerGroup" transform="translate(0.000000, 408.000000)">
                <g id="Sensor-data" transform="translate(74.000000, 6.000000)" sketch:type="MSShapeGroup">
                    <g id="NO2-PREVIEW" transform="translate(720.000000, 17.000000)">
                        <path d="M8.2088,29.07 L6.3352,24.4736 C6.1536,24.0224 6.0036,23.2548 6.0036,22.7648 C6.0036,22.2748 6.2884,21.874 6.6372,21.874 C6.9876,21.874 7.2732,21.5732 7.2732,21.206 C7.2732,20.8396 6.892,20.5388 6.426,20.5388 L2.6192,20.5388 C2.1528,20.5388 1.7716,20.8396 1.7716,21.206 C1.7716,21.5732 2.0576,21.874 2.4072,21.874 C2.7548,21.874 3.0392,22.2748 3.0392,22.7648 C3.0392,23.2548 2.8908,24.0224 2.7076,24.4736 L0.836,29.07 C0.6524,29.5184 0.5,30.0876 0.5,30.3324 C0.5,30.5776 0.6924,30.9792 0.9252,31.224 C1.158,31.468 1.7288,31.668 2.1932,31.668 L6.8496,31.668 C7.3144,31.668 7.886,31.468 8.1188,31.224 C8.3512,30.9792 8.5416,30.5776 8.5416,30.3324 C8.5416,30.0876 8.3924,29.5184 8.2088,29.07 L8.2088,29.07 Z M5.124,19.2212 C5.124,19.5724 5.3936,19.8572 5.726,19.8572 C6.0604,19.8572 6.3312,19.5724 6.3312,19.2212 C6.3312,18.8712 6.0604,18.588 5.726,18.588 C5.3936,18.588 5.124,18.8712 5.124,19.2212 L5.124,19.2212 Z M3.5012,19.3192 C3.654,19.3192 3.7816,19.1892 3.7816,19.0264 C3.7816,18.866 3.654,18.7344 3.5012,18.7344 C3.3468,18.7344 3.222,18.866 3.222,19.0264 C3.222,19.1892 3.3468,19.3192 3.5012,19.3192 L3.5012,19.3192 Z M4.5688,17.8548 C5.0556,17.8548 5.4508,17.4396 5.4508,16.9296 C5.4508,16.4156 5.0556,16 4.5688,16 C4.08,16 3.6864,16.4156 3.6864,16.9296 C3.6864,17.4396 4.08,17.8548 4.5688,17.8548 L4.5688,17.8548 Z" id="no2_icon"></path>
                    </g>
                </g>
            </g>
        </g>
    </g>
</svg>
