<svg xmlns="http://www.w3.org/2000/svg" viewBox="0 0 11.41 11.41"><title>sck-21-icons</title><path d="M8.17,9.21L6.92,6.13A3.65,3.65,0,0,1,6.69,5a0.54,0.54,0,0,1,.43-0.6,0.44,0.44,0,0,0,.43-0.45A0.52,0.52,0,0,0,7,3.5H4.43a0.52,0.52,0,0,0-.57.45,0.44,0.44,0,0,0,.43.45,0.53,0.53,0,0,1,.42.6,3.62,3.62,0,0,1-.22,1.14L3.24,9.21a3,3,0,0,0-.22.84,1,1,0,0,0,.28.6,1.33,1.33,0,0,0,.85.3H7.26a1.36,1.36,0,0,0,.85-0.3,1.06,1.06,0,0,0,.28-0.6,3,3,0,0,0-.22-0.84M6.11,2.62a0.4,0.4,0,1,0,.4-0.42,0.41,0.41,0,0,0-.4.42M5,2.69a0.2,0.2,0,1,0-.19-0.2,0.19,0.19,0,0,0,.19.2m0.72-1a0.6,0.6,0,0,0,.59-0.62,0.59,0.59,0,1,0-1.18,0,0.6,0.6,0,0,0,.59.62"/><rect width="11.41" height="11.41" style="fill:none"/></svg>