<svg xmlns="http://www.w3.org/2000/svg" viewBox="0 0 11.41 11.41"><title>sck-21-icons</title><path d="M5.72,1.92A2.62,2.62,0,0,0,4.84,7V7.74H2.19a0.29,0.29,0,0,0,0,.58h7a0.29,0.29,0,1,0,0-.58H6.59V7a2.62,2.62,0,0,0-.87-5.09m0,0.87a1.73,1.73,0,0,1,1.21.49,0.2,0.2,0,0,0-.25,0L5.82,4H5.72a0.58,0.58,0,1,0,.58.58,0.58,0.58,0,0,0,0-.15l0.65-.82a0.26,0.26,0,0,0,0-.29,1.75,1.75,0,1,1-1.22-.49M2.17,8.91a0.29,0.29,0,1,0,.05.58h7a0.29,0.29,0,1,0,0-.58h-7Z"/><rect width="11.41" height="11.41" style="fill:none"/></svg>