<?xml version="1.0" encoding="utf-8"?>
<!-- Generator: Adobe Illustrator 22.0.1, SVG Export Plug-In . SVG Version: 6.00 Build 0)  -->
<svg version="1.1" id="Capa_1" xmlns="http://www.w3.org/2000/svg" xmlns:xlink="http://www.w3.org/1999/xlink" x="0px" y="0px"
	 viewBox="0 0 200 200" style="enable-background:new 0 0 200 200;" xml:space="preserve">
<style type="text/css">
	.st0{fill:#262626;}
</style>
<g>
	<g>
		<path class="st0" d="M166.3,33.7c-4.4-4.4-10.4-6.6-18-6.6c-13.3,0-30.6,7.1-48.4,19.2C82,34,64.8,27.1,51.6,27.1
			c-7.6,0-13.6,2.2-18,6.6c-8.4,8.4-8.7,23.4-0.9,42.2c3.3,7.8,7.9,16,13.5,24.2c-1,1.4-1.9,2.8-2.8,4.2c-1.3-0.4-2.6-0.7-4-0.7
			c-6.8,0-12.4,5.6-12.4,12.4c0,4.1,2,7.7,5.1,10c-7.2,18-6.7,32.4,1.5,40.6c4.4,4.4,10.4,6.6,18,6.6c13.3,0,30.6-7.1,48.3-19.3
			c17.8,12.1,35.1,19.3,48.4,19.3c7.6,0,13.6-2.2,18-6.6c12.4-12.4,6.7-38.4-12.6-66.5c5.6-8.2,10.1-16.3,13.4-24.1
			C175.1,57.1,174.7,42.1,166.3,33.7z M37.3,73.9c-7.1-16.8-7.1-29.9-0.2-36.8c3.4-3.4,8.3-5.1,14.5-5.1c11.9,0,27.5,6.3,44,17.3
			c-8.4,6.1-16.9,13.3-25,21.4c-8,8-15.2,16.5-21.4,25C44.4,88.3,40.3,80.9,37.3,73.9z M116.8,68.9c-4.1,0-7.5-3.4-7.5-7.5
			s3.4-7.5,7.5-7.5c1.9,0,3.7,0.7,5.1,2c1.5,1.4,2.3,3.4,2.3,5.4C124.3,65.6,120.9,68.9,116.8,68.9z M116.8,73.8
			c2.5,0,4.7-0.7,6.6-2c0.8,0.8,1.6,1.5,2.4,2.3c8.5,8.5,15.8,17.2,21.9,25.8c-3.6,5.1-7.7,10.2-12.1,15.2c-1.9-1.2-4.2-1.8-6.5-1.8
			c-6.8,0-12.4,5.6-12.4,12.4c0,2.5,0.7,4.7,2,6.7c-6.2,5.7-12.6,10.8-18.9,15.3c-8.7-6.2-17.4-13.6-25.8-21.9
			c-8.3-8.3-15.8-17.1-22-25.8c6.3-8.7,13.7-17.5,22-25.8c8.4-8.4,17.1-15.8,25.8-22c1.8,1.3,3.7,2.7,5.5,4.1
			c-0.7,1.6-1.1,3.3-1.1,5.1C104.4,68.3,110,73.8,116.8,73.8z M121.7,125.7c0-4.1,3.4-7.5,7.5-7.5c1.9,0,3.8,0.7,5.1,2
			c1.5,1.4,2.3,3.4,2.3,5.4c0,4.1-3.4,7.5-7.5,7.5C125.1,133.2,121.7,129.9,121.7,125.7z M39.4,108.3c4.1,0,7.5,3.4,7.5,7.5
			s-3.4,7.5-7.5,7.5s-7.5-3.4-7.5-7.5S35.3,108.3,39.4,108.3z M51.6,168c-6.2,0-11.1-1.7-14.5-5.1c-6.6-6.6-6.7-19.3-0.5-35
			c0.9,0.2,1.9,0.4,2.8,0.4c6.8,0,12.4-5.6,12.4-12.4c0-3.6-1.6-6.9-4.1-9.1c0.5-0.8,1.1-1.6,1.6-2.4c6.2,8.5,13.4,16.9,21.4,25
			c8.1,8.1,16.5,15.3,25,21.4C79.3,161.6,63.6,168,51.6,168z M162.9,162.9c-3.4,3.4-8.3,5.1-14.5,5.1c-12,0-27.8-6.4-44.1-17.3
			c6-4.4,12-9.4,18-14.8c2,1.4,4.4,2.2,7,2.2c6.8,0,12.4-5.6,12.4-12.4c0-2.6-0.8-5.1-2.3-7.2c4.1-4.7,7.9-9.5,11.4-14.2
			C167.4,129.4,173.1,152.7,162.9,162.9z M150.8,95.7c-6.1-8.3-13.2-16.7-21.5-25c-0.8-0.8-1.5-1.5-2.3-2.3c1.4-2,2.2-4.4,2.2-7
			c0-3.4-1.4-6.6-3.9-9c-2.3-2.2-5.3-3.4-8.5-3.4c-3.2,0-6.2,1.3-8.4,3.3c-1.4-1.1-2.8-2.1-4.2-3.1C120.5,38.3,136.3,32,148.3,32
			c6.2,0,11.1,1.7,14.5,5.1c6.9,6.9,6.9,20-0.2,36.8C159.7,81,155.7,88.3,150.8,95.7z"/>
		<path class="st0" d="M87.1,87.1c-3.5,3.4-5.4,8-5.4,12.9s1.9,9.5,5.3,12.9c3.5,3.4,8,5.3,12.9,5.3c4.9,0,9.5-1.9,12.9-5.3
			c3.4-3.5,5.4-8,5.4-12.9s-1.9-9.5-5.3-12.9C106,80.2,94,80.2,87.1,87.1z M109.4,90.6c2.5,2.5,3.9,5.9,3.9,9.4s-1.4,6.9-3.9,9.5
			c-5,5.1-13.9,5-18.9,0c-2.5-2.5-3.9-5.9-3.9-9.5s1.4-6.9,3.9-9.4c2.5-2.5,5.9-3.9,9.5-3.9C103.6,86.6,106.9,88,109.4,90.6z"/>
	</g>
</g>
</svg>
