<?xml version="1.0" encoding="UTF-8" standalone="no"?>
<svg width="14px" height="14px" viewBox="0 0 14 14" version="1.1" xmlns="http://www.w3.org/2000/svg" xmlns:xlink="http://www.w3.org/1999/xlink" xmlns:sketch="http://www.bohemiancoding.com/sketch/ns">
    <!-- Generator: Sketch 3.3.1 (12002) - http://www.bohemiancoding.com/sketch -->
    <title>search icon white</title>
    <desc>Created with Sketch.</desc>
    <defs></defs>
    <g id="Map-elements" stroke="none" stroke-width="1" fill="none" fill-rule="evenodd" sketch:type="MSPage">
        <g sketch:type="MSArtboardGroup" transform="translate(-307.000000, -25.000000)" id="map" fill="#FFFFFF">
            <g sketch:type="MSLayerGroup">
                <g id="Search-box" transform="translate(291.000000, 14.000000)" sketch:type="MSShapeGroup">
                    <path d="M26.0073185,16.1953688 L25.3717553,16.1953688 L25.150829,16.4146941 C25.931275,17.3248142 26.4059463,18.5046884 26.4059463,19.7974271 C26.4059463,22.6710692 24.0766152,25.0004002 21.2029731,25.0004002 C18.329331,25.0004002 16,22.6710692 16,19.7974271 C16,16.923785 18.329331,14.594454 21.2029731,14.594454 C22.4957118,14.594454 23.6747856,15.0683248 24.5849057,15.8479703 L24.8058319,15.6286449 L24.8058319,14.9946827 L28.806518,10.9995998 L30,12.1930818 L26.0073185,16.1953688 L26.0073185,16.1953688 Z M21.2029731,16.1953688 C19.213036,16.1953688 17.6009148,17.80749 17.6009148,19.7974271 C17.6009148,21.7865638 19.213036,23.3994854 21.2029731,23.3994854 C23.1921098,23.3994854 24.8050314,21.7865638 24.8050314,19.7974271 C24.8050314,17.80749 23.1921098,16.1953688 21.2029731,16.1953688 L21.2029731,16.1953688 Z" id="search-icon-white" transform="translate(23.000000, 18.000000) scale(1, -1) translate(-23.000000, -18.000000) "></path>
                </g>
            </g>
        </g>
    </g>
</svg>