<?xml version="1.0" encoding="UTF-8" standalone="no"?>
<svg width="13px" height="14px" viewBox="0 0 13 14" version="1.1" xmlns="http://www.w3.org/2000/svg" xmlns:xlink="http://www.w3.org/1999/xlink" xmlns:sketch="http://www.bohemiancoding.com/sketch/ns">
    <!-- Generator: Sketch 3.3.1 (12002) - http://www.bohemiancoding.com/sketch -->
    <title>Shape_icon_inactive</title>
    <desc>Created with Sketch.</desc>
    <defs></defs>
    <g class="stroke_container" id="Preview" stroke="none" stroke-width="1" fill="none" fill-rule="evenodd" sketch:type="MSPage">
        <g class="fill_container" id="Subnavbar-+-preview-+-popup-OK" sketch:type="MSArtboardGroup" transform="translate(-991.000000, -385.000000)" fill="#82A7B0">
            <g id="Subnavbar" sketch:type="MSLayerGroup" transform="translate(0.000000, 376.000000)">
                <g id="Navigation" transform="translate(778.000000, 9.000000)" sketch:type="MSShapeGroup">
                    <g id="SHARE" transform="translate(213.000000, 0.000000)">
                        <path d="M9.14572864,5.48743719 L4.15075377,2.60301508 C4.22110553,2.46231156 4.22110553,2.25125628 4.22110553,2.11055276 C4.22110553,0.914572864 3.30653266,0 2.11055276,0 C0.914572864,0 0,0.914572864 0,2.11055276 C0,3.30653266 0.914572864,4.22110553 2.11055276,4.22110553 C2.67336683,4.22110553 3.16582915,4.01005025 3.51758794,3.65829146 L8.51256281,6.54271357 C8.44221106,6.68341709 8.44221106,6.89447236 8.44221106,7.03517588 C8.44221106,7.1758794 8.44221106,7.38693467 8.51256281,7.52763819 L3.51758794,10.4824121 C3.16582915,10.1306533 2.67336683,9.91959799 2.11055276,9.91959799 C0.984924623,9.91959799 0.0703517588,10.8341709 0.0703517588,11.959799 C0.0703517588,13.0854271 0.984924623,14 2.11055276,14 C3.2361809,14 4.15075377,13.0854271 4.15075377,11.959799 C4.15075377,11.8190955 4.15075377,11.678392 4.08040201,11.4673367 L9.07537688,8.51256281 C9.42713568,8.86432161 9.91959799,9.07537688 10.4824121,9.07537688 C11.678392,9.07537688 12.5929648,8.16080402 12.5929648,6.96482412 C12.5929648,5.76884422 11.7487437,4.92462312 10.5527638,4.92462312 C9.98994975,4.92462312 9.49748744,5.13567839 9.14572864,5.48743719 Z" id="Shape_icon" transform="translate(6.296482, 7.000000) scale(-1, 1) translate(-6.296482, -7.000000) "></path>
                    </g>
                </g>
            </g>
        </g>
    </g>
</svg>
