<?xml version="1.0" encoding="utf-8"?>
<!-- Generator: Adobe Illustrator 22.0.1, SVG Export Plug-In . SVG Version: 6.00 Build 0)  -->
<svg version="1.1" id="Capa_1" xmlns="http://www.w3.org/2000/svg" xmlns:xlink="http://www.w3.org/1999/xlink" x="0px" y="0px"
	 viewBox="0 0 126.1 126.1" style="enable-background:new 0 0 126.1 126.1;" xml:space="preserve">
<style type="text/css">
	.st0{fill:#FFFFFF;}
</style>
<g>
	<g>
		<path class="st0" d="M79,18.3h-2.2v3.5h2c0.6,0,1.1-0.1,1.4-0.4c0.3-0.3,0.5-0.7,0.5-1.3C80.8,18.8,80.2,18.3,79,18.3z"/>
		<polygon class="st0" points="58.3,23.4 61.4,23.4 59.8,19.4 		"/>
		<path class="st0" d="M5.4,4.1v59.3h115.3V4.1H5.4z M86.6,13.9h14.5V18h-4.5v12.6h-5.6V18h-4.5V13.9z M22.5,13.7
			c0.8,0,1.8,0.1,2.8,0.2c1,0.2,1.9,0.3,2.6,0.5v4.4c-1.6-0.6-3.1-1-4.4-1c-0.7,0-1.3,0.1-1.8,0.2c-0.4,0.1-0.6,0.4-0.6,0.7
			c0,0.2,0.1,0.4,0.3,0.5c0.2,0.1,0.4,0.3,0.8,0.4c0.3,0.1,0.9,0.3,1.8,0.5c1.3,0.4,2.4,0.8,3.1,1.3c0.7,0.5,1.2,1.1,1.5,1.8
			c0.3,0.7,0.4,1.5,0.4,2.5c0,1.6-0.6,2.9-1.9,3.8c-1.2,0.9-3,1.4-5.4,1.4c-1.2,0-2.3-0.1-3.3-0.3c-1-0.2-1.9-0.5-2.7-0.8v-4.4
			c0.8,0.4,1.7,0.7,2.7,0.9c1,0.2,1.9,0.4,2.7,0.4c0.7,0,1.3-0.1,1.6-0.2c0.4-0.1,0.5-0.4,0.5-0.8c0-0.3-0.2-0.6-0.5-0.8
			c-0.3-0.2-0.9-0.4-1.8-0.7c-0.3-0.1-0.6-0.2-1-0.3c-1.1-0.4-2-0.8-2.6-1.2c-0.6-0.4-1.1-1-1.3-1.6c-0.3-0.6-0.4-1.4-0.4-2.3
			C15.4,15.4,17.8,13.7,22.5,13.7z M30.2,53.8c-0.8,0.3-1.6,0.5-2.4,0.6C27,54.5,26,54.6,25,54.6c-3.1,0-5.5-0.7-7.2-2.2
			c-1.6-1.5-2.5-3.6-2.5-6.4c0-2.8,0.8-5,2.4-6.5c1.6-1.5,4-2.2,7.2-2.2c1,0,1.9,0.1,2.8,0.2c0.8,0.1,1.6,0.4,2.4,0.7v4.9
			c-1.6-0.7-3.2-1-4.8-1c-1.4,0-2.5,0.3-3.2,0.9c-0.7,0.6-1.1,1.6-1.1,3c0,1.3,0.4,2.3,1.1,2.9c0.7,0.6,1.8,0.9,3.3,0.9
			c1.7,0,3.3-0.3,4.8-1V53.8z M37.9,54.4h-5.6V37.6h5.6V54.4z M36.5,23.5v7.1h-5.6V13.9h5.3l3.8,7.7l3.7-7.7h5.3v16.7h-5.6v-7.1
			l-2.1,4.3h-2.9L36.5,23.5z M54,41.7h-4.5v12.6h-5.6V41.7h-4.5v-4.1H54V41.7z M61.1,54.4h-5.6V37.6h5.6V54.4z M57.6,27.3l-1.3,3.3
			h-5.8l6.4-16.7h5.8l6.4,16.7h-5.8l-1.3-3.3H57.6z M77.4,54.4H63.2v-2.8l6.7-9.5h-6.3v-4.4h13.7v3.1l-6.6,9.4h6.8V54.4z M78.3,26.2
			c-0.1-0.1-0.4-0.2-0.6-0.2h-0.8v4.6h-5.6V13.9h9c2,0,3.6,0.6,4.6,1.7c1,1.1,1.6,2.6,1.6,4.4c0,1.1-0.3,2.1-0.8,2.9
			s-1.3,1.6-2.2,2.1c0.3,0.3,0.6,0.6,0.8,1.1l1.9,4.5h-5.8l-1.7-3.9C78.6,26.5,78.4,26.3,78.3,26.2z M92.3,41.8h-7.4v2.1h6.5v4.2
			h-6.5v2.1h7.4v4.1h-13V37.6h13V41.8z M110,54.4h-4.7l-5.5-7.7v7.7h-5.6V37.6H99l5.5,7.7v-7.7h5.6V54.4z"/>
	</g>
	<path class="st0" d="M5.4,69.2V122h52.8V69.2H5.4z M37.7,91.9c0.6,0.6,0.9,1.3,0.9,2.1v1.4h-1.9V94c0-0.3-0.1-0.6-0.3-0.8
		c-0.2-0.2-0.5-0.3-0.8-0.3c-0.3,0-0.6,0.1-0.8,0.3c-0.2,0.2-0.3,0.5-0.3,0.8v6.8c0,0.3,0.1,0.5,0.3,0.8c0.2,0.2,0.5,0.3,0.8,0.3
		c0.3,0,0.6-0.1,0.8-0.3c0.2-0.2,0.3-0.5,0.3-0.8v-1.7h1.9v1.7c0,0.8-0.3,1.5-0.9,2.1c-0.6,0.6-1.3,0.9-2.1,0.9
		c-0.8,0-1.5-0.3-2.1-0.9c-0.6-0.6-0.9-1.3-0.9-2.1V94c0-0.8,0.3-1.5,0.9-2.1c0.6-0.6,1.3-0.9,2.1-0.9C36.4,91,37.1,91.3,37.7,91.9z
		 M47.3,104c-3.7,8.5-13.6,12.4-22.1,8.8c-8.5-3.7-12.4-13.6-8.8-22.1c2.2-5,6.4-8.4,11.3-9.6l-1.1-3.5c-0.1-0.4,0.1-0.5,0.4-0.4
		l7.8,3.1c0.3,0.1,0.5,0.5,0.2,0.8l-4.8,6.9c-0.2,0.3-0.5,0.3-0.6-0.1L28.6,84c-4.1,0.9-7.7,3.7-9.5,7.9c-3,6.9,0.2,15,7.1,18
		c6.9,3,15-0.2,18-7.1c1.9-4.5,1.3-9.4-1.3-13.2c-0.5-0.7-0.3-1.7,0.3-2.2c0.7-0.6,1.8-0.4,2.3,0.4C48.8,92.3,49.7,98.4,47.3,104z
		 M28.7,99c-0.4-0.4-0.9-0.9-1.7-1.6c-0.6-0.6-1.1-1.2-1.3-1.6c-0.3-0.5-0.4-1.1-0.4-1.8c0-1.1,0.4-2,1.1-2.6
		c0.5-0.4,1.1-0.5,1.8-0.5c0.7,0,1.3,0.1,1.7,0.5c0.4,0.2,0.7,0.6,0.9,1c0.2,0.4,0.4,0.9,0.4,1.5l-1.8,0.3c-0.1-0.5-0.2-0.9-0.4-1.2
		c-0.2-0.2-0.4-0.3-0.8-0.3c-0.3,0-0.6,0.2-0.8,0.5c-0.1,0.2-0.2,0.6-0.2,0.9c0,0.6,0.2,1.2,0.7,1.8c0.2,0.2,0.5,0.5,0.8,0.8
		c0.4,0.4,0.7,0.6,0.9,0.8c0.5,0.5,0.8,0.9,1.1,1.4c0.1,0.2,0.2,0.4,0.3,0.6c0.2,0.4,0.3,0.8,0.3,1.2c0,0.9-0.2,1.6-0.7,2.2
		c-0.3,0.4-0.7,0.7-1.3,0.9c-0.3,0.1-0.7,0.1-1.1,0.1c-0.7,0-1.4-0.2-1.8-0.6c-0.4-0.3-0.7-0.7-1-1.2c-0.2-0.5-0.4-1.1-0.4-1.8
		l1.8-0.1c0.1,0.7,0.3,1.3,0.6,1.6c0.2,0.2,0.5,0.4,0.8,0.4c0.4,0,0.7-0.2,1-0.6c0.1-0.2,0.2-0.5,0.2-0.8
		C29.4,100,29.2,99.5,28.7,99z"/>
</g>
</svg>
