<?xml version="1.0" encoding="UTF-8" standalone="no"?>
<svg width="18px" height="16px" viewBox="0 0 18 16" version="1.1" xmlns="http://www.w3.org/2000/svg" xmlns:xlink="http://www.w3.org/1999/xlink" xmlns:sketch="http://www.bohemiancoding.com/sketch/ns">
    <!-- Generator: Sketch 3.3.1 (12002) - http://www.bohemiancoding.com/sketch -->
    <title>sound_icon</title>
    <desc>Created with Sketch.</desc>
    <defs></defs>
    <g id="Preview-+-popup" stroke="none" stroke-width="1" sketch:type="MSPage">
        <g id="Subnavbar-+-preview-+-popup-OK" class="container_parent" sketch:type="MSArtboardGroup" transform="translate(-521.000000, -447.000000)" fill-opacity="0.87">
            <g id="Preview" class="container_children" sketch:type="MSLayerGroup" transform="translate(0.000000, 408.000000)">
                <g id="Sensor-data" transform="translate(74.000000, 6.000000)" sketch:type="MSShapeGroup">
                    <g id="SOUND-PREVIEW" transform="translate(447.000000, 17.000000)">
                        <path d="M0,20.6275774 L0,27.0658805 L3.48654545,27.0658805 L8.70254545,31.5710926 L8.70593939,16.1223653 L3.48654545,20.6275774 L0,20.6275774 L0,20.6275774 Z M10.7049697,19.8857593 C10.4009697,19.5696381 9.90933333,19.5696381 9.60921212,19.8881835 C9.30521212,20.206729 9.30521212,20.7235774 9.61018182,21.0426078 C10.2787879,21.7466078 10.6913939,22.7114562 10.6913939,23.7853956 C10.6913939,24.8598199 10.2792727,25.822729 9.61018182,26.5262441 C9.30521212,26.8443047 9.30521212,27.358729 9.61018182,27.6821229 C9.76193939,27.8392138 9.95927273,27.9192138 10.1566061,27.9192138 C10.3602424,27.9192138 10.5556364,27.8392138 10.7073939,27.6821229 C11.6523636,26.6852744 12.2419394,25.3020017 12.24,23.7853956 C12.2419394,22.2649108 11.6523636,20.8811532 10.7049697,19.8857593 L10.7049697,19.8857593 Z M12.4848485,18.0156987 C12.1798788,17.6971532 11.6906667,17.6971532 11.3895758,18.0156987 C11.0855758,18.334729 11.0855758,18.8535168 11.3895758,19.1691532 C12.5115152,20.3521835 13.2058182,21.9803047 13.2058182,23.7853956 C13.2058182,25.5880623 12.5115152,27.214729 11.3895758,28.3996987 C11.0855758,28.7167896 11.0855758,29.2331532 11.3895758,29.5521835 C11.5432727,29.7131532 11.7410909,29.7912138 11.9408485,29.7912138 C12.1401212,29.7912138 12.3374545,29.7131532 12.4877576,29.5521835 C13.8894545,28.0772744 14.7592727,26.0326684 14.7568485,23.7853956 C14.7568485,21.5337593 13.8875152,19.4901229 12.4848485,18.0156987 L12.4848485,18.0156987 Z M14.1735758,16.238729 C13.8695758,15.9192138 13.3793939,15.9211532 13.078303,16.2401835 C12.7762424,16.5572744 12.7762424,17.0736381 13.078303,17.3941229 C14.6341818,19.0314562 15.5941818,21.285032 15.5941818,23.7853956 C15.5941818,26.2813956 14.6341818,28.5378805 13.078303,30.1756987 C12.7762424,30.4942441 12.7762424,31.0081835 13.0807273,31.3286684 C13.2290909,31.486729 13.4307879,31.5662441 13.6286061,31.5662441 C13.8269091,31.5662441 14.0237576,31.486729 14.1779394,31.3286684 C16.0087273,29.4013956 17.1452121,26.7269714 17.1452121,23.7853956 C17.1452121,20.8399411 16.0087273,18.1679411 14.1735758,16.238729 L14.1735758,16.238729 Z" id="sound_icon"></path>
                    </g>
                </g>
            </g>
        </g>
    </g>
</svg>
