<?xml version="1.0" encoding="UTF-8" standalone="no"?>
<svg width="17px" height="16px" viewBox="0 0 17 16" version="1.1" xmlns="http://www.w3.org/2000/svg" xmlns:xlink="http://www.w3.org/1999/xlink" xmlns:sketch="http://www.bohemiancoding.com/sketch/ns">
    <!-- Generator: Sketch 3.3.1 (12002) - http://www.bohemiancoding.com/sketch -->
    <title>info_icon</title>
    <desc>Created with Sketch.</desc>
    <defs></defs>
    <g class="stroke_container" id="My-Profile-/-Kits-/-Tools" stroke="none" stroke-width="1" sketch:type="MSPage">
        <g class="fill_container" id="MY-PROFILE" sketch:type="MSArtboardGroup" transform="translate(-279.000000, -267.000000)">
            <g id="EDIT-PROFILE" sketch:type="MSLayerGroup" transform="translate(0.000000, 64.000000)">
                <g id="navigation" transform="translate(0.000000, 202.000000)" sketch:type="MSShapeGroup">
                    <g id="TOOLS" transform="translate(279.500000, 0.000000)">
                        <path d="M7.6,13 L9.2,13 L9.2,8.2 L7.6,8.2 L7.6,13 L7.6,13 Z M8.4,1 C4,1 0.4,4.6 0.4,9 C0.4,13.4 4,17 8.4,17 C12.8,17 16.4,13.4 16.4,9 C16.4,4.6 12.8,1 8.4,1 L8.4,1 L8.4,1 Z M8.4,15.4 C4.88,15.4 2,12.52 2,9 C2,5.48 4.88,2.6 8.4,2.6 C11.92,2.6 14.8,5.48 14.8,9 C14.8,12.52 11.92,15.4 8.4,15.4 L8.4,15.4 L8.4,15.4 Z M7.6,6.6 L9.2,6.6 L9.2,5 L7.6,5 L7.6,6.6 L7.6,6.6 Z" id="info_icon"></path>
                    </g>
                </g>
            </g>
        </g>
    </g>
</svg>
