<svg xmlns="http://www.w3.org/2000/svg" viewBox="0 0 11.41 11.41"><title>sck-21-icons</title><path d="M6.1,7.3V3.52H5.37V7.3a0.91,0.91,0,0,0-.24.59,0.57,0.57,0,1,0,1.13,0A1.59,1.59,0,0,0,6.1,7.3M7,2.85A1.36,1.36,0,0,0,5.7,1.45,1.36,1.36,0,0,0,4.38,2.85V6.39a2.09,2.09,0,0,0-.63,1.5A2,2,0,0,0,5.7,10a2,2,0,0,0,2-2.06A2.09,2.09,0,0,0,7,6.39V2.85ZM7.13,7.9A1.46,1.46,0,0,1,5.7,9.4,1.46,1.46,0,0,1,4.28,7.9a1.51,1.51,0,0,1,.63-1.24V2.85a0.79,0.79,0,1,1,1.59,0V6.66A1.51,1.51,0,0,1,7.13,7.9"/><rect width="11.41" height="11.41" style="fill:none"/></svg>