<?xml version="1.0" encoding="UTF-8" standalone="no"?>
<svg width="11px" height="10px" viewBox="0 0 11 10" version="1.1" xmlns="http://www.w3.org/2000/svg" xmlns:xlink="http://www.w3.org/1999/xlink" xmlns:sketch="http://www.bohemiancoding.com/sketch/ns">
    <!-- Generator: Sketch 3.3.1 (12002) - http://www.bohemiancoding.com/sketch -->
    <title>Update_icon</title>
    <desc>Created with Sketch.</desc>
    <defs></defs>
    <g class="stroke_container" id="Preview-+-popup" stroke="none" stroke-width="1" fill="none" fill-rule="evenodd" sketch:type="MSPage">
        <g class="fill_container" id="Subnavbar-+-preview-+-popup-OK" sketch:type="MSArtboardGroup" transform="translate(-397.000000, -125.000000)" fill="#1D4A57">
            <g id="Popup-Copy" sketch:type="MSLayerGroup" transform="translate(388.500000, 72.000000)">
                <path d="M14,53 C11.25,53 9,55.25 9,58 C9,60.75 11.25,63 14,63 C16.75,63 19,60.75 19,58 C19,55.25 16.75,53 14,53 L14,53 L14,53 Z M14,62 C11.8,62 10,60.2 10,58 C10,55.8 11.8,54 14,54 C16.2,54 18,55.8 18,58 C18,60.2 16.2,62 14,62 L14,62 Z M14.25,55.5 L13.5,55.5 L13.5,58.5 L16.1,60.1 L16.5,59.45 L14.25,58.1 L14.25,55.5 L14.25,55.5 Z" id="Update_icon" sketch:type="MSShapeGroup"></path>
            </g>
        </g>
    </g>
</svg>
