<?xml version="1.0" encoding="UTF-8" standalone="no"?>
<svg width="14px" height="15px" viewBox="0 0 14 15" version="1.1" xmlns="http://www.w3.org/2000/svg" xmlns:xlink="http://www.w3.org/1999/xlink" xmlns:sketch="http://www.bohemiancoding.com/sketch/ns">
    <!-- Generator: Sketch 3.3.1 (12002) - http://www.bohemiancoding.com/sketch -->
    <title>Shape</title>
    <desc>Created with Sketch.</desc>
    <defs></defs>
    <g id="Owner-detail" stroke="none" stroke-width="1" sketch:type="MSPage">
        <g id="my-owner-detail" sketch:type="MSArtboardGroup" transform="translate(-164.000000, -1241.000000)">
            <g id="OWNER-DETAILS" sketch:type="MSLayerGroup" transform="translate(0.000000, 1116.000000)">
                <g id="Group-Copy" transform="translate(164.000000, 64.000000)" sketch:type="MSShapeGroup">
                    <g id="Kit-type" transform="translate(0.000000, 60.000000)">
                        <g id="kit-detail-icon" transform="translate(0.000000, 1.500000)">
                            <path d="M7,0 C3.15,0 0,3.15 0,7 C0,10.85 3.15,14 7,14 C10.85,14 14,10.85 14,7 C14,3.15 10.85,0 7,0 L7,0 L7,0 Z M11.83,4.2 L9.8,4.2 C9.59,3.29 9.24,2.52 8.82,1.68 C10.08,2.17 11.2,3.01 11.83,4.2 L11.83,4.2 L11.83,4.2 Z M7,1.4 C7.56,2.24 8.05,3.15 8.33,4.2 L5.67,4.2 C5.95,3.22 6.44,2.24 7,1.4 L7,1.4 L7,1.4 Z M1.61,8.4 C1.47,7.98 1.4,7.49 1.4,7 C1.4,6.51 1.47,6.02 1.61,5.6 L3.99,5.6 C3.92,6.09 3.92,6.51 3.92,7 C3.92,7.49 3.99,7.91 3.99,8.4 L1.61,8.4 L1.61,8.4 Z M2.17,9.8 L4.2,9.8 C4.41,10.71 4.76,11.48 5.18,12.32 C3.92,11.83 2.8,10.99 2.17,9.8 L2.17,9.8 L2.17,9.8 Z M4.2,4.2 L2.17,4.2 C2.87,3.01 3.92,2.17 5.18,1.68 C4.76,2.52 4.41,3.29 4.2,4.2 L4.2,4.2 L4.2,4.2 Z M7,12.6 C6.44,11.76 5.95,10.85 5.67,9.8 L8.33,9.8 C8.05,10.78 7.56,11.76 7,12.6 L7,12.6 L7,12.6 Z M8.61,8.4 L5.39,8.4 C5.32,7.91 5.25,7.49 5.25,7 C5.25,6.51 5.32,6.09 5.39,5.6 L8.68,5.6 C8.75,6.09 8.82,6.51 8.82,7 C8.82,7.49 8.68,7.91 8.61,8.4 L8.61,8.4 L8.61,8.4 Z M8.82,12.32 C9.24,11.55 9.59,10.71 9.8,9.8 L11.83,9.8 C11.2,10.99 10.08,11.83 8.82,12.32 L8.82,12.32 L8.82,12.32 Z M10.08,8.4 C10.15,7.91 10.15,7.49 10.15,7 C10.15,6.51 10.08,6.09 10.08,5.6 L12.46,5.6 C12.6,6.02 12.67,6.51 12.67,7 C12.67,7.49 12.6,7.98 12.46,8.4 L10.08,8.4 L10.08,8.4 Z" id="Shape"></path>
                        </g>
                    </g>
                </g>
            </g>
        </g>
    </g>
</svg>
