<?xml version="1.0" encoding="UTF-8" standalone="no"?>
<svg width="12px" height="12px" viewBox="0 0 12 12" version="1.1" xmlns="http://www.w3.org/2000/svg" xmlns:xlink="http://www.w3.org/1999/xlink" xmlns:sketch="http://www.bohemiancoding.com/sketch/ns">
    <!-- Generator: Sketch 3.3.1 (12002) - http://www.bohemiancoding.com/sketch -->
    <title>Shape</title>
    <desc>Created with Sketch.</desc>
    <defs></defs>
    <g id="My-Profile-/-Kits-/-Tools" stroke="none" stroke-width="1" sketch:type="MSPage">
        <g id="MY-PROFILE" sketch:type="MSArtboardGroup" transform="translate(-160.000000, -187.000000)">
            <g id="EDIT-PROFILE" sketch:type="MSLayerGroup" transform="translate(0.000000, 64.000000)">
                <g id="USER-INFO" transform="translate(46.000000, 51.000000)" sketch:type="MSShapeGroup">
                    <g id="INFO" transform="translate(114.000000, 0.000000)">
                        <g id="WEBSITE" transform="translate(0.000000, 68.000000)">
                            <g id="kit-detail-icon" transform="translate(0.000000, 3.500000)">
                                <path d="M6,0.5 C2.7,0.5 0,3.2 0,6.5 C0,9.8 2.7,12.5 6,12.5 C9.3,12.5 12,9.8 12,6.5 C12,3.2 9.3,0.5 6,0.5 L6,0.5 L6,0.5 Z M10.14,4.1 L8.4,4.1 C8.22,3.32 7.92,2.66 7.56,1.94 C8.64,2.36 9.6,3.08 10.14,4.1 L10.14,4.1 L10.14,4.1 Z M6,1.7 C6.48,2.42 6.9,3.2 7.14,4.1 L4.86,4.1 C5.1,3.26 5.52,2.42 6,1.7 L6,1.7 L6,1.7 Z M1.38,7.7 C1.26,7.34 1.2,6.92 1.2,6.5 C1.2,6.08 1.26,5.66 1.38,5.3 L3.42,5.3 C3.36,5.72 3.36,6.08 3.36,6.5 C3.36,6.92 3.42,7.28 3.42,7.7 L1.38,7.7 L1.38,7.7 Z M1.86,8.9 L3.6,8.9 C3.78,9.68 4.08,10.34 4.44,11.06 C3.36,10.64 2.4,9.92 1.86,8.9 L1.86,8.9 L1.86,8.9 Z M3.6,4.1 L1.86,4.1 C2.46,3.08 3.36,2.36 4.44,1.94 C4.08,2.66 3.78,3.32 3.6,4.1 L3.6,4.1 L3.6,4.1 Z M6,11.3 C5.52,10.58 5.1,9.8 4.86,8.9 L7.14,8.9 C6.9,9.74 6.48,10.58 6,11.3 L6,11.3 L6,11.3 Z M7.38,7.7 L4.62,7.7 C4.56,7.28 4.5,6.92 4.5,6.5 C4.5,6.08 4.56,5.72 4.62,5.3 L7.44,5.3 C7.5,5.72 7.56,6.08 7.56,6.5 C7.56,6.92 7.44,7.28 7.38,7.7 L7.38,7.7 L7.38,7.7 Z M7.56,11.06 C7.92,10.4 8.22,9.68 8.4,8.9 L10.14,8.9 C9.6,9.92 8.64,10.64 7.56,11.06 L7.56,11.06 L7.56,11.06 Z M8.64,7.7 C8.7,7.28 8.7,6.92 8.7,6.5 C8.7,6.08 8.64,5.72 8.64,5.3 L10.68,5.3 C10.8,5.66 10.86,6.08 10.86,6.5 C10.86,6.92 10.8,7.34 10.68,7.7 L8.64,7.7 L8.64,7.7 Z" id="Shape"></path>
                            </g>
                        </g>
                    </g>
                </g>
            </g>
        </g>
    </g>
</svg>
