<?xml version="1.0" encoding="UTF-8" standalone="no"?>
<svg width="15px" height="14px" viewBox="0 0 15 14" version="1.1" xmlns="http://www.w3.org/2000/svg" xmlns:xlink="http://www.w3.org/1999/xlink" xmlns:sketch="http://www.bohemiancoding.com/sketch/ns">
    <!-- Generator: Sketch 3.3.1 (12002) - http://www.bohemiancoding.com/sketch -->
    <title>user_details_icon_inactive</title>
    <desc>Created with Sketch.</desc>
    <defs></defs>
    <g class="stroke_container" id="Preview" stroke="none" stroke-width="1" fill="none" fill-rule="evenodd" sketch:type="MSPage">
        <g class="fill_container" id="Subnavbar-+-preview-+-popup-OK" sketch:type="MSArtboardGroup" transform="translate(-890.000000, -385.000000)" fill="#82A7B0">
            <g id="Subnavbar" sketch:type="MSLayerGroup" transform="translate(0.000000, 376.000000)">
                <g id="Navigation" transform="translate(778.000000, 9.000000)" sketch:type="MSShapeGroup">
                    <g id="USER-DETAILS" transform="translate(112.400000, 0.000000)">
                        <path d="M7,0 C3.15,0 0,3.15 0,7 C0,10.85 3.15,14 7,14 C10.85,14 14,10.85 14,7 C14,3.15 10.85,0 7,0 L7,0 L7,0 Z M7,2.1 C8.19,2.1 9.1,3.01 9.1,4.2 C9.1,5.39 8.19,6.3 7,6.3 C5.81,6.3 4.9,5.39 4.9,4.2 C4.9,3.01 5.81,2.1 7,2.1 L7,2.1 L7,2.1 Z M7,12.04 C5.25,12.04 3.71,11.13 2.8,9.8 C2.8,8.4 5.6,7.63 7,7.63 C8.4,7.63 11.2,8.4 11.2,9.8 C10.29,11.13 8.75,12.04 7,12.04 L7,12.04 L7,12.04 Z" id="user_details_icon"></path>
                    </g>
                </g>
            </g>
        </g>
    </g>
</svg>
