<?xml version="1.0" encoding="UTF-8" standalone="no"?>
<svg width="16px" height="16px" viewBox="0 0 16 16" version="1.1" xmlns="http://www.w3.org/2000/svg" xmlns:xlink="http://www.w3.org/1999/xlink" xmlns:sketch="http://www.bohemiancoding.com/sketch/ns">
    <!-- Generator: Sketch 3.3.1 (12002) - http://www.bohemiancoding.com/sketch -->
    <title>alert_icon</title>
    <desc>Created with Sketch.</desc>
    <defs></defs>
    <g id="Alerts" stroke="none" stroke-width="1" sketch:type="MSPage">
        <g sketch:type="MSArtboardGroup" transform="translate(-26.000000, -72.000000)" id="Notification-bar" fill-opacity="0.87">
            <g sketch:type="MSLayerGroup" transform="translate(0.000000, 64.000000)">
                <g id="Alert" sketch:type="MSShapeGroup">
                    <path d="M33.2,20 L34.8,20 L34.8,15.2 L33.2,15.2 L33.2,20 L33.2,20 Z M34,8 C29.6,8 26,11.6 26,16 C26,20.4 29.6,24 34,24 C38.4,24 42,20.4 42,16 C42,11.6 38.4,8 34,8 L34,8 L34,8 Z M34,22.4 C30.48,22.4 27.6,19.52 27.6,16 C27.6,12.48 30.48,9.6 34,9.6 C37.52,9.6 40.4,12.48 40.4,16 C40.4,19.52 37.52,22.4 34,22.4 L34,22.4 L34,22.4 Z M33.2,13.6 L34.8,13.6 L34.8,12 L33.2,12 L33.2,13.6 L33.2,13.6 Z" id="alert_icon" transform="translate(34.000000, 16.000000) scale(1, -1) translate(-34.000000, -16.000000) "></path>
                </g>
            </g>
        </g>
    </g>
</svg>
