<?xml version="1.0" encoding="UTF-8" standalone="no"?>
<svg width="20px" height="20px" viewBox="0 0 20 20" version="1.1" xmlns="http://www.w3.org/2000/svg" xmlns:xlink="http://www.w3.org/1999/xlink" xmlns:sketch="http://www.bohemiancoding.com/sketch/ns">
    <!-- Generator: Sketch 3.3.1 (12002) - http://www.bohemiancoding.com/sketch -->
    <title>Placeholder avatar</title>
    <desc>Created with Sketch.</desc>
    <defs></defs>
    <g id="Search" stroke="none" stroke-width="1" fill="none" fill-rule="evenodd" sketch:type="MSPage">
        <g sketch:type="MSArtboardGroup" transform="translate(-307.000000, -310.000000)" id="Search-results" fill="#6E6E6E">
            <g sketch:type="MSLayerGroup" transform="translate(291.000000, 50.000000)">
                <g id="Search-results-Copy-7" transform="translate(0.000000, 252.000000)" sketch:type="MSShapeGroup">
                    <g id="Rectangle-1314-+-Sensor-icon-Copy-+-Shape-Copy-4-+-Barcelona,-Espanya-+-Parc-de-i’Escorxador">
                        <path d="M26,8 C20.5,8 16,12.5 16,18 C16,23.5 20.5,28 26,28 C31.5,28 36,23.5 36,18 C36,12.5 31.5,8 26,8 L26,8 L26,8 Z M26,11 C27.7,11 29,12.3 29,14 C29,15.7 27.7,17 26,17 C24.3,17 23,15.7 23,14 C23,12.3 24.3,11 26,11 L26,11 L26,11 Z M26,25.2 C23.5,25.2 21.3,23.9 20,22 C20,20 24,18.9 26,18.9 C28,18.9 32,20 32,22 C30.7,23.9 28.5,25.2 26,25.2 L26,25.2 L26,25.2 Z" id="Placeholder-avatar"></path>
                    </g>
                </g>
            </g>
        </g>
    </g>
</svg>
