<?xml version="1.0" encoding="utf-8"?>
<!-- Generator: Adobe Illustrator 22.0.1, SVG Export Plug-In . SVG Version: 6.00 Build 0)  -->
<svg version="1.1" id="Capa_1" xmlns="http://www.w3.org/2000/svg" xmlns:xlink="http://www.w3.org/1999/xlink" x="0px" y="0px"
	 viewBox="0 0 200 200" style="enable-background:new 0 0 200 200;" xml:space="preserve">
<style type="text/css">
	.st0{fill:#FFFFFF;}
</style>
<g>
	<path class="st0" d="M97.7,71.8c-1.3,0-2.4,1.1-2.4,2.4v42.3c0,1.3,1.1,2.4,2.4,2.4c1.3,0,2.4-1.1,2.4-2.4V74.1
		C100,72.8,99,71.8,97.7,71.8z"/>
	<path class="st0" d="M107.1,71.8c-1.3,0-2.4,1.1-2.4,2.4v42.3c0,1.3,1.1,2.4,2.4,2.4c1.3,0,2.4-1.1,2.4-2.4V74.1
		C109.4,72.8,108.4,71.8,107.1,71.8z"/>
	<path class="st0" d="M135.3,100h9.4c1.3,0,2.4-1.1,2.4-2.4s-1.1-2.4-2.4-2.4h-9.4c-1.3,0-2.4,1.1-2.4,2.4S134,100,135.3,100z"/>
	<path class="st0" d="M144.7,104.7h-9.4c-1.3,0-2.4,1.1-2.4,2.4s1.1,2.4,2.4,2.4h9.4c1.3,0,2.4-1.1,2.4-2.4S146,104.7,144.7,104.7z"
		/>
	<path class="st0" d="M144.7,114.1h-9.4c-1.3,0-2.4,1.1-2.4,2.4c0,1.3,1.1,2.4,2.4,2.4h9.4c1.3,0,2.4-1.1,2.4-2.4
		C147.1,115.2,146,114.1,144.7,114.1z"/>
	<path class="st0" d="M60,100h9.4c1.3,0,2.4-1.1,2.4-2.4s-1.1-2.4-2.4-2.4H60c-1.3,0-2.4,1.1-2.4,2.4S58.7,100,60,100z"/>
	<path class="st0" d="M69.4,104.7H60c-1.3,0-2.4,1.1-2.4,2.4s1.1,2.4,2.4,2.4h9.4c1.3,0,2.4-1.1,2.4-2.4S70.7,104.7,69.4,104.7z"/>
	<path class="st0" d="M69.4,114.1H60c-1.3,0-2.4,1.1-2.4,2.4c0,1.3,1.1,2.4,2.4,2.4h9.4c1.3,0,2.4-1.1,2.4-2.4
		C71.8,115.2,70.7,114.1,69.4,114.1z"/>
	<path class="st0" d="M163.5,125.9C163.5,125.9,163.5,125.9,163.5,125.9C163.5,125.9,163.5,125.8,163.5,125.9c0-0.2,0-0.3,0-0.5
		c0-0.1,0-0.1-0.1-0.2c0-0.1,0-0.1-0.1-0.2c0-0.1-0.1-0.2-0.1-0.2c0-0.1-0.1-0.1-0.1-0.2c-0.1-0.1-0.1-0.1-0.2-0.2
		c0,0-0.1-0.1-0.1-0.1c-0.1-0.1-0.2-0.1-0.2-0.2c0,0-0.1-0.1-0.1-0.1c-0.2-0.1-0.5-0.3-0.7-0.3c-0.2-0.1-0.4-0.1-0.6-0.1h-7V88.2
		c0-1.3-1.1-2.4-2.4-2.4h-23.5c-1.3,0-2.4,1.1-2.4,2.4v35.3h-4.7V62.4c0-1.3-1.1-2.4-2.4-2.4h-7.1V53c0-1.3-1.1-2.4-2.4-2.4h-4.7
		V38.8c0-1.3-1.1-2.4-2.4-2.4c-1.3,0-2.4,1.1-2.4,2.4v11.8h-4.7C94,50.6,93,51.7,93,53V60h-7.1c-1.3,0-2.4,1.1-2.4,2.4v61.2h-4.7
		V88.2c0-1.3-1.1-2.4-2.4-2.4H53c-1.3,0-2.4,1.1-2.4,2.4v35.3h-7c-0.2,0-0.5,0-0.7,0.1c-0.2,0.1-0.5,0.2-0.7,0.3c0,0-0.1,0-0.1,0.1
		c-0.1,0.1-0.2,0.1-0.3,0.2c0,0-0.1,0.1-0.1,0.1c-0.1,0.1-0.1,0.2-0.2,0.2c0,0,0,0.1-0.1,0.1c-0.1,0.1-0.1,0.2-0.1,0.3
		c0,0.1,0,0.1-0.1,0.2c0,0.1-0.1,0.2-0.1,0.3c0,0.1,0,0.2,0,0.4c0,0,0,0.1,0,0.1c0,0,0,0,0,0c0,0.2,0,0.3,0,0.5
		c0,0.2,0.1,0.3,0.1,0.5l7.1,16.5c0,0,0,0,0,0c0.1,0.2,0.2,0.4,0.3,0.5c0,0,0.1,0.1,0.1,0.1c0.1,0.1,0.2,0.2,0.4,0.3
		c0,0,0.1,0.1,0.1,0.1c0,0,0.1,0,0.1,0.1l51.7,28.2c0.1,0.1,0.2,0.1,0.4,0.1c0.1,0,0.1,0.1,0.2,0.1c0,0,0,0,0,0
		c0.2,0.1,0.4,0.1,0.6,0.1c0,0,0,0,0,0s0,0,0,0c0.2,0,0.4,0,0.6-0.1c0,0,0,0,0,0c0.1,0,0.1-0.1,0.2-0.1c0.1,0,0.2-0.1,0.3-0.1l0,0
		c0,0,0,0,0,0l0,0c0,0,0,0,0,0l51.7-28.2c0,0,0.1,0,0.1-0.1c0.1,0,0.1-0.1,0.1-0.1c0.1-0.1,0.3-0.2,0.4-0.3c0,0,0.1-0.1,0.1-0.1
		c0.1-0.2,0.2-0.3,0.3-0.5c0,0,0,0,0-0.1l7.1-16.5c0.1-0.1,0.1-0.3,0.1-0.5C163.5,126.2,163.5,126,163.5,125.9z M152.3,140.7
		l-43.6,23.8l12.2-20.9c0,0,0-0.1,0.1-0.1c0-0.1,0.1-0.2,0.1-0.2c0-0.1,0-0.1,0.1-0.2c0-0.1,0-0.1,0.1-0.2c0-0.1,0-0.2,0-0.3
		c0,0,0-0.1,0-0.1v-14.1h36.4L152.3,140.7z M52.5,140.7l-5.3-12.4h69.3v13.5l-15,25.7L52.5,140.7z M130.6,90.6h18.8v32.9h-18.8V90.6
		z M97.7,55.3h9.4V60h-9.4V55.3z M88.2,64.7h28.2v58.8H88.2V64.7z M55.3,90.6h18.8v32.9H55.3V90.6z"/>
	<path class="st0" d="M48.3,57.7c5.2,0,9.4-4.2,9.4-9.4s-4.2-9.4-9.4-9.4c-5.2,0-9.4,4.2-9.4,9.4S43.1,57.7,48.3,57.7z M48.3,43.5
		c2.6,0,4.7,2.1,4.7,4.7S50.9,53,48.3,53c-2.6,0-4.7-2.1-4.7-4.7S45.7,43.5,48.3,43.5z"/>
	<path class="st0" d="M48.3,36.5c1.3,0,2.4-1.1,2.4-2.4v-4.7c0-1.3-1.1-2.4-2.4-2.4c-1.3,0-2.4,1.1-2.4,2.4v4.7
		C45.9,35.4,47,36.5,48.3,36.5z"/>
	<path class="st0" d="M45.9,62.4v4.7c0,1.3,1.1,2.4,2.4,2.4c1.3,0,2.4-1.1,2.4-2.4v-4.7c0-1.3-1.1-2.4-2.4-2.4
		C47,60,45.9,61.1,45.9,62.4z"/>
	<path class="st0" d="M36.6,39.9c0.5,0.5,1.1,0.7,1.7,0.7c0.6,0,1.2-0.2,1.7-0.7c0.9-0.9,0.9-2.4,0-3.3l-3.3-3.3
		c-0.9-0.9-2.4-0.9-3.3,0c-0.9,0.9-0.9,2.4,0,3.3L36.6,39.9z"/>
	<path class="st0" d="M56.6,56.6c-0.9,0.9-0.9,2.4,0,3.3l3.3,3.3c0.5,0.5,1.1,0.7,1.7,0.7c0.6,0,1.2-0.2,1.7-0.7
		c0.9-0.9,0.9-2.4,0-3.3l-3.3-3.3C59,55.6,57.5,55.6,56.6,56.6z"/>
	<path class="st0" d="M36.5,48.3c0-1.3-1.1-2.4-2.4-2.4h-4.7c-1.3,0-2.4,1.1-2.4,2.4s1.1,2.4,2.4,2.4h4.7
		C35.4,50.6,36.5,49.6,36.5,48.3z"/>
	<path class="st0" d="M60,48.3c0,1.3,1.1,2.4,2.4,2.4h4.7c1.3,0,2.4-1.1,2.4-2.4c0-1.3-1.1-2.4-2.4-2.4h-4.7
		C61.1,45.9,60,46.9,60,48.3z"/>
	<path class="st0" d="M36.6,56.6l-3.3,3.3c-0.9,0.9-0.9,2.4,0,3.3c0.5,0.5,1.1,0.7,1.7,0.7c0.6,0,1.2-0.2,1.7-0.7l3.3-3.3
		c0.9-0.9,0.9-2.4,0-3.3C39,55.6,37.5,55.6,36.6,56.6z"/>
	<path class="st0" d="M58.2,40.6c0.6,0,1.2-0.2,1.7-0.7l3.3-3.3c0.9-0.9,0.9-2.4,0-3.3s-2.4-0.9-3.3,0l-3.3,3.3
		c-0.9,0.9-0.9,2.4,0,3.3C57,40.4,57.6,40.6,58.2,40.6z"/>
	<path class="st0" d="M161.1,41.2c-5.7,0-10.4,4-11.5,9.4h-12c-3.9,0-7.1,3.2-7.1,7.1c0,3.9,3.2,7.1,7.1,7.1h23.5
		c6.5,0,11.8-5.3,11.8-11.8C172.9,46.5,167.6,41.2,161.1,41.2z M161.1,60h-23.5c-1.3,0-2.4-1.1-2.4-2.4s1.1-2.4,2.4-2.4h14.1
		c1.3,0,2.4-1.1,2.4-2.4c0-3.9,3.2-7.1,7.1-7.1c3.9,0,7.1,3.2,7.1,7.1C168.2,56.8,165,60,161.1,60z"/>
</g>
</svg>
