<?xml version="1.0" encoding="UTF-8" standalone="no"?>
<svg width="15px" height="15px" viewBox="0 0 15 15" version="1.1" xmlns="http://www.w3.org/2000/svg" xmlns:xlink="http://www.w3.org/1999/xlink" xmlns:sketch="http://www.bohemiancoding.com/sketch/ns">
    <!-- Generator: Sketch 3.3.1 (12002) - http://www.bohemiancoding.com/sketch -->
    <title>Shape-path</title>
    <desc>Created with Sketch.</desc>
    <defs></defs>
    <g id="Owner-detail" stroke="none" stroke-width="1" fill="none" fill-rule="evenodd" sketch:type="MSPage">
        <g id="my-owner-detail" sketch:type="MSArtboardGroup" transform="translate(-632.000000, -924.000000)" fill="#4F8390">
            <g id="Kit-Details" sketch:type="MSLayerGroup" transform="translate(0.000000, 768.000000)">
                <g id="Debug-mode" transform="translate(632.500000, 155.000000)" sketch:type="MSShapeGroup">
                    <path d="M11.025,3.225 L9.8,4.45 C11.2,5.4125 12.25,7.075 12.25,9 C12.25,11.8875 9.8875,14.25 7,14.25 C4.1125,14.25 1.75,11.8875 1.75,9 C1.75,7.075 2.8,5.4125 4.2875,4.5375 L2.975,3.225 C1.225,4.5375 0,6.6375 0,9 C0,12.85 3.15,16 7,16 C10.85,16 14,12.85 14,9 C14,6.6375 12.775,4.5375 11.025,3.225 Z M7.875,1.475 L6.125,1.475 L6.125,10.225 L7.875,10.225 L7.875,1.475 Z" id="Shape-path"></path>
                </g>
            </g>
        </g>
    </g>
</svg>