<?xml version="1.0" encoding="utf-8"?>
<!-- Generator: Adobe Illustrator 22.0.1, SVG Export Plug-In . SVG Version: 6.00 Build 0)  -->
<svg version="1.1" id="Capa_1" xmlns="http://www.w3.org/2000/svg" xmlns:xlink="http://www.w3.org/1999/xlink" x="0px" y="0px"
	 viewBox="0 0 39.8 39.8" style="enable-background:new 0 0 39.8 39.8;" xml:space="preserve">
<style type="text/css">
	.st0{fill:#FFFFFF;}
</style>
<g>
	<path class="st0" d="M19.9,0C9,0,0,9,0,19.9c0,11,8.9,19.9,19.9,19.9c11,0,19.9-8.9,19.9-19.9C39.8,9,30.9,0,19.9,0L19.9,0z
		 M24.8,20.6h-3.2v11.5h-4.8V20.6h-2.3v-4.1h2.3v-2.6c0-1.9,0.9-4.8,4.8-4.8l3.5,0v4h-2.6c-0.4,0-1,0.2-1,1.1v2.4h3.6L24.8,20.6z
		 M24.8,20.6"/>
</g>
</svg>
