<?xml version="1.0" encoding="utf-8"?>
<!-- Generator: Adobe Illustrator 22.0.1, SVG Export Plug-In . SVG Version: 6.00 Build 0)  -->
<svg version="1.1" id="Capa_1" xmlns="http://www.w3.org/2000/svg" xmlns:xlink="http://www.w3.org/1999/xlink" x="0px" y="0px"
	 viewBox="0 0 145 145" style="enable-background:new 0 0 145 145;" xml:space="preserve">
<style type="text/css">
	.st0{fill:#262626;}
</style>
<g>
	<path class="st0" d="M98.6,49.6H46.8c-1.6,0-2.9,1.3-3,3c0,0.8,0.3,1.5,0.9,2.1c0.6,0.6,1.3,0.9,2.1,0.9h51.8c1.6,0,3-1.3,3-3
		S100.2,49.6,98.6,49.6z"/>
	<path class="st0" d="M98.6,75.5H46.8c-1.6,0-3,1.3-3,3c0,1.6,1.3,3,3,3c0,0,0,0,0,0h51.8c1.6,0,3-1.3,3-3S100.2,75.5,98.6,75.5z"/>
	<path class="st0" d="M106.8,21.2H38.2c-11.3,0-20.5,9.2-20.5,20.5V115c0,3.6,2.1,6.8,5.4,8.1c1.1,0.5,2.2,0.7,3.4,0.7
		c2.3,0,4.5-1,6.1-2.6l14.7-14.8h59.3c11.3,0,20.4-9.2,20.5-20.5V41.7C127.2,30.4,118.1,21.2,106.8,21.2z M121.3,86
		c0,8-6.5,14.5-14.6,14.6H46.2c-0.9,0-1.8,0.5-2.4,1.2L28.6,117c-0.6,0.6-1.3,0.8-2,0.8c-0.7,0-1.5-0.3-2-0.8
		c-0.5-0.5-0.8-1.3-0.8-2V41.7c0-8,6.5-14.6,14.6-14.6h68.6c8,0,14.6,6.6,14.6,14.6V86z"/>
</g>
</svg>
