<?xml version="1.0" encoding="utf-8"?>
<!-- Generator: Adobe Illustrator 22.0.1, SVG Export Plug-In . SVG Version: 6.00 Build 0)  -->
<svg version="1.1" id="Capa_1" xmlns="http://www.w3.org/2000/svg" xmlns:xlink="http://www.w3.org/1999/xlink" x="0px" y="0px"
	 viewBox="0 0 39.8 39.8" style="enable-background:new 0 0 39.8 39.8;" xml:space="preserve">
<style type="text/css">
	.st0{fill:#FFFFFF;}
</style>
<g>
        <path class="st0" d="M20.0085472,0 C31.0542422,0 40.0085472,8.954305 40.0085472,20 C40.0085472,31.045695 31.0542422,40 20.0085472,40 C8.96285225,40 0.00854724965,31.045695 0.00854724965,20 C0.00854724965,8.954305 8.96285225,0 20.0085472,0 Z M26.0085585,10.2500063 L14.0085501,10.2500063 L13.8082784,10.2551673 C11.8194092,10.3579665 10.2585395,11.9838731 10.2585395,14.0000169 L10.2585395,14.0000169 L10.2585395,26.0000113 L10.2637004,26.2002829 C10.3664997,28.1891512 11.9924062,29.7500063 14.0085501,29.7500063 L14.0085501,29.7500063 L26.0085585,29.7500063 L26.2088289,29.7448455 C28.1976862,29.6420472 29.7585691,28.0161551 29.7585691,26.0000113 L29.7585691,26.0000113 L29.7585691,14.0000028 L29.7534081,13.7997325 C29.6506072,11.810876 28.0246751,10.2500063 26.0085585,10.2500063 L26.0085585,10.2500063 Z M15.0918733,18.0000198 C14.8418669,18.5833444 14.6752078,19.3333493 14.6752078,20.0000198 C14.6752078,22.9166796 17.0918818,25.3333465 20.0085472,25.3333465 C22.9252127,25.3333465 25.3418796,22.9166796 25.3418796,20.0000198 C25.3418796,19.3333493 25.1752078,18.5833303 24.9252212,18.0000198 L24.9252212,18.0000198 L27.8419008,18.0000198 L27.8419008,26.0000198 L27.8357341,26.1486864 C27.7581497,27.0812698 26.9585559,27.8333536 26.0085585,27.8333536 L26.0085585,27.8333536 L14.0085501,27.8333536 L13.8598837,27.8271869 C12.9273017,27.7496035 12.1752078,26.9500198 12.1752078,26.0000198 L12.1752078,26.0000198 L12.1752078,18.0000198 Z M20.0085614,16.5833359 C21.0918973,16.5833359 22.175236,17.1666747 22.7585607,18.0000198 C23.1752191,18.5833359 23.4252254,19.2500092 23.4252254,20.0000141 C23.4252254,21.9166683 21.8418895,23.4166782 20.0085614,23.4166782 C18.1752191,23.4166782 16.5918973,21.9166824 16.5918973,20.0000141 C16.5918973,19.2500092 16.8418895,18.5833359 17.2585621,18.0000198 C17.8418867,17.1666747 18.925224,16.5833359 20.0085614,16.5833359 Z M27.5085543,12.5000071 L27.5085543,15.833331 L24.1752163,15.833331 L24.1752163,12.5000071 L27.5085543,12.5000071 Z" id="Combined-Shape" fill="#FFFFFF" fill-rule="nonzero"></path>
    </g>
</svg>
