<?xml version="1.0" encoding="UTF-8" standalone="no"?>
<svg width="15px" height="14px" viewBox="0 0 15 14" version="1.1" xmlns="http://www.w3.org/2000/svg" xmlns:xlink="http://www.w3.org/1999/xlink" xmlns:sketch="http://www.bohemiancoding.com/sketch/ns">
    <!-- Generator: Sketch 3.3.1 (12002) - http://www.bohemiancoding.com/sketch -->
    <title>Kit_details_icon_inactive</title>
    <desc>Created with Sketch.</desc>
    <defs></defs>
    <g class="stroke_container" id="Preview" stroke="none" stroke-width="1" sketch:type="MSPage">
        <g class="fill_container" id="Subnavbar-+-preview-+-popup-OK" sketch:type="MSArtboardGroup" transform="translate(-840.000000, -385.000000)">
            <g id="Subnavbar" sketch:type="MSLayerGroup" transform="translate(0.000000, 376.000000)">
                <g id="Navigation" transform="translate(778.000000, 9.000000)" sketch:type="MSShapeGroup">
                    <g id="KIT-DETAILS" transform="translate(62.400000, 0.000000)">
                        <g id="kit-detail-icon">
                            <path d="M7,14 C10.8659932,14 14,10.8659932 14,7 C14,3.13400675 10.8659932,0 7,0 C3.13400675,0 0,3.13400675 0,7 C0,10.8659932 3.13400675,14 7,14 Z M7,13 C10.3137085,13 13,10.3137085 13,7 C13,3.6862915 10.3137085,1 7,1 C3.6862915,1 1,3.6862915 1,7 C1,10.3137085 3.6862915,13 7,13 Z M7,11.5 C9.48528137,11.5 11.5,9.48528137 11.5,7 C11.5,4.51471863 9.48528137,2.5 7,2.5 C4.51471863,2.5 2.5,4.51471863 2.5,7 C2.5,9.48528137 4.51471863,11.5 7,11.5 Z" id="Kit_details_icon"></path>
                        </g>
                    </g>
                </g>
            </g>
        </g>
    </g>
</svg>
