<svg xmlns="http://www.w3.org/2000/svg" viewBox="0 0 11.41 11.41"><title>sck-21-icons</title><path d="M5.7,3.79A1.88,1.88,0,0,0,3.86,5.7,1.88,1.88,0,0,0,5.7,7.62,1.88,1.88,0,0,0,7.55,5.7,1.88,1.88,0,0,0,5.7,3.79m0,3.27a1.35,1.35,0,0,1,0-2.7,1.35,1.35,0,0,1,0,2.7m0-3.78A0.28,0.28,0,0,0,6,3V1.57a0.28,0.28,0,1,0-.56,0V3a0.29,0.29,0,0,0,.28.29M6.6,3.45l0.11,0A0.28,0.28,0,0,0,7,3.3L7.48,2a0.3,0.3,0,0,0-.15-0.38A0.28,0.28,0,0,0,7,1.78L6.45,3.08a0.29,0.29,0,0,0,.15.38M7.36,4a0.27,0.27,0,0,0,.39,0l1-1a0.3,0.3,0,0,0,0-.41,0.27,0.27,0,0,0-.39,0l-1,1a0.3,0.3,0,0,0,0,.41M7.87,4.77a0.28,0.28,0,0,0,.26.18l0.11,0,1.25-.54A0.3,0.3,0,0,0,9.63,4a0.28,0.28,0,0,0-.36-0.16L8,4.39a0.3,0.3,0,0,0-.15.38M9.68,5.41H8.32a0.29,0.29,0,0,0,0,.58H9.68a0.29,0.29,0,0,0,0-.58M9.48,7L8.23,6.48a0.27,0.27,0,0,0-.36.16A0.3,0.3,0,0,0,8,7L9.27,7.55l0.11,0a0.28,0.28,0,0,0,.26-0.18A0.29,0.29,0,0,0,9.48,7m-1.73.41a0.27,0.27,0,0,0-.39,0,0.3,0.3,0,0,0,0,.41l1,1a0.27,0.27,0,0,0,.39,0,0.3,0.3,0,0,0,0-.41l-1-1M7,8.11A0.27,0.27,0,0,0,6.6,8a0.29,0.29,0,0,0-.15.38L7,9.63a0.28,0.28,0,0,0,.26.18l0.11,0a0.3,0.3,0,0,0,.15-0.38L7,8.11m-1.26,0a0.28,0.28,0,0,0-.28.29V9.83a0.28,0.28,0,1,0,.56,0V8.43a0.28,0.28,0,0,0-.28-0.29M4.81,8a0.28,0.28,0,0,0-.36.16L3.93,9.41a0.29,0.29,0,0,0,.15.38l0.11,0a0.28,0.28,0,0,0,.26-0.18L5,8.33A0.29,0.29,0,0,0,4.81,8M4.05,7.43a0.27,0.27,0,0,0-.4,0l-1,1a0.3,0.3,0,0,0,0,.41,0.27,0.27,0,0,0,.39,0l1-1a0.3,0.3,0,0,0,0-.41M3.54,6.64a0.28,0.28,0,0,0-.36-0.16L1.93,7a0.29,0.29,0,0,0-.15.38A0.27,0.27,0,0,0,2,7.58l0.1,0L3.39,7a0.3,0.3,0,0,0,.15-0.38M3.36,5.71a0.28,0.28,0,0,0-.28-0.29H1.73a0.29,0.29,0,0,0,0,.58H3.09a0.28,0.28,0,0,0,.28-0.29M1.92,4.4L3.17,4.93,3.28,5a0.28,0.28,0,0,0,.26-0.18A0.29,0.29,0,0,0,3.39,4.4L2.14,3.86A0.27,0.27,0,0,0,1.77,4a0.29,0.29,0,0,0,.15.38M3.65,4A0.27,0.27,0,0,0,4,4a0.3,0.3,0,0,0,0-.41l-1-1a0.27,0.27,0,0,0-.39,0,0.3,0.3,0,0,0,0,.41l1,1M4.44,3.3a0.28,0.28,0,0,0,.26.18l0.11,0A0.29,0.29,0,0,0,5,3.08L4.43,1.78a0.28,0.28,0,0,0-.36-0.16A0.3,0.3,0,0,0,3.92,2L4.44,3.3"/><rect width="11.41" height="11.41" style="fill:none"/></svg>