<?xml version="1.0" encoding="UTF-8" standalone="no"?>
<svg width="12px" height="16px" viewBox="0 0 12 16" version="1.1" xmlns="http://www.w3.org/2000/svg" xmlns:xlink="http://www.w3.org/1999/xlink" xmlns:sketch="http://www.bohemiancoding.com/sketch/ns">
    <!-- Generator: Sketch 3.3.1 (12002) - http://www.bohemiancoding.com/sketch -->
    <title>Location_icon Copy 8</title>
    <desc>Created with Sketch.</desc>
    <defs></defs>
    <g id="My-Profile-/-Kits-/-Tools" stroke="none" stroke-width="1" sketch:type="MSPage">
        <g id="MY-PROFILE" sketch:type="MSArtboardGroup" transform="translate(-160.000000, -154.000000)">
            <g id="EDIT-PROFILE" sketch:type="MSLayerGroup" transform="translate(0.000000, 64.000000)">
                <g id="USER-INFO" transform="translate(46.000000, 51.000000)" sketch:type="MSShapeGroup">
                    <g id="INFO" transform="translate(114.000000, 0.000000)">
                        <g id="LOCATION" transform="translate(0.000000, 35.000000)">
                            <path d="M5.6,4 C2.48,4 0,6.48 0,9.6 C0,13.76 5.6,20 5.6,20 C5.6,20 11.2,13.76 11.2,9.6 C11.2,6.48 8.72,4 5.6,4 L5.6,4 L5.6,4 Z M5.6,11.6 C4.48,11.6 3.6,10.72 3.6,9.6 C3.6,8.48 4.48,7.6 5.6,7.6 C6.72,7.6 7.6,8.48 7.6,9.6 C7.6,10.72 6.72,11.6 5.6,11.6 L5.6,11.6 L5.6,11.6 Z" id="Location_icon-Copy-8"></path>
                        </g>
                    </g>
                </g>
            </g>
        </g>
    </g>
</svg>
