<?xml version="1.0" encoding="UTF-8" standalone="no"?>
<svg width="20px" height="16px" viewBox="0 0 20 16" version="1.1" xmlns="http://www.w3.org/2000/svg" xmlns:xlink="http://www.w3.org/1999/xlink" xmlns:sketch="http://www.bohemiancoding.com/sketch/ns">
    <!-- Generator: Sketch 3.3.1 (12002) - http://www.bohemiancoding.com/sketch -->
    <title>nets_icons</title>
    <desc>Created with Sketch.</desc>
    <defs></defs>
    <g id="Preview-+-popup" stroke="none" stroke-width="1" sketch:type="MSPage">
        <g id="Subnavbar-+-preview-+-popup-OK" class="container_parent" sketch:type="MSArtboardGroup" transform="translate(-934.000000, -447.000000)" fill-opacity="0.87">
            <g id="Preview" class="container_children" sketch:type="MSLayerGroup" transform="translate(0.000000, 408.000000)">
                <g id="Sensor-data" transform="translate(74.000000, 6.000000)" sketch:type="MSShapeGroup">
                    <g id="NETS-PREVIEW" transform="translate(860.000000, 17.000000)">
                        <path d="M13.8728571,21.9506667 L19.3942857,18.9746667 L13.8728571,16 L13.8728571,17.844 C11.7314286,18.096 10.2828571,19.6426667 8.89428571,21.2213333 C9.29142857,21.7 9.68,22.188 10.0642857,22.672 C10.2057143,22.8493333 10.3457143,23.024 10.4857143,23.1973333 C11.07,22.4866667 11.6428571,21.8333333 12.1957143,21.328 C12.8414286,20.7253333 13.4214286,20.3773333 13.8728571,20.2453333 L13.8728571,21.9506667 L13.8728571,21.9506667 Z M10.8557143,24.7706667 C9.46857143,23.152 8.06571429,21.1173333 6.46142857,19.6293333 C5.39571429,18.6533333 4.15571429,17.812 2.56,17.7906667 L0,17.7906667 L0,20.18 L2.56,20.18 C3.26857143,20.0973333 4.64,21.088 6.00428571,22.7533333 C7.39,24.3693333 8.79142857,26.404 10.3957143,27.8946667 C11.3657143,28.7786667 12.4771429,29.5493333 13.8728571,29.7 L13.8728571,31.504 L19.3942857,28.528 L13.8728571,25.552 L13.8728571,27.2813333 C13.11,27.0493333 11.9828571,26.1453333 10.8557143,24.7706667 L10.8557143,24.7706667 Z" id="nets_icons"></path>
                    </g>
                </g>
            </g>
        </g>
    </g>
</svg>
