<svg xmlns="http://www.w3.org/2000/svg" viewBox="0 0 11.41 11.41"><title>sck-21-icons</title><path d="M8.61,5.17c0-.07,0-0.13,0-0.2A2.11,2.11,0,0,0,6.57,2.81a2.06,2.06,0,0,0-1.92,1.4,1,1,0,0,0-.78-0.37A1.09,1.09,0,0,0,2.81,5a1.1,1.1,0,0,0,0,.21,1.7,1.7,0,0,0-1.37,1.7A1.69,1.69,0,0,0,3.1,8.6H8.31A1.69,1.69,0,0,0,10,6.87a1.71,1.71,0,0,0-1.34-1.7m-3.31-.8a0.41,0.41,0,1,1-.41.41,0.41,0.41,0,0,1,.41-0.41M3.3,5a0.62,0.62,0,1,1,.62.62A0.62,0.62,0,0,1,3.3,5M4.51,8.22a0.41,0.41,0,1,1,.41-0.41,0.41,0.41,0,0,1-.41.41M5,7.16a0.8,0.8,0,1,1,.8-0.8,0.8,0.8,0,0,1-.8.8m1.7,0.15A0.52,0.52,0,1,1,7.24,6.8a0.52,0.52,0,0,1-.52.52M8,8.31A0.71,0.71,0,1,1,8.75,7.6,0.71,0.71,0,0,1,8,8.31"/><rect width="11.41" height="11.41" style="fill:none"/></svg>