<?xml version="1.0" encoding="UTF-8" standalone="no"?>
<svg width="15px" height="16px" viewBox="0 0 15 16" version="1.1" xmlns="http://www.w3.org/2000/svg" xmlns:xlink="http://www.w3.org/1999/xlink" xmlns:sketch="http://www.bohemiancoding.com/sketch/ns">
    <!-- Generator: Sketch 3.3.1 (12002) - http://www.bohemiancoding.com/sketch -->
    <title>Shape Copy 2</title>
    <desc>Created with Sketch.</desc>
    <defs></defs>
    <g id="My-Profile-/-Kits-/-Tools" stroke="none" stroke-width="1" fill="none" fill-rule="evenodd" sketch:type="MSPage">
        <g id="MY-PROFILE" sketch:type="MSArtboardGroup" transform="translate(-724.000000, -1147.000000)" fill="#F9F9FB">
            <g id="EDIT-PROFILE" sketch:type="MSLayerGroup" transform="translate(0.000000, 64.000000)">
                <g id="Fields-+-button" transform="translate(369.000000, 316.000000)" sketch:type="MSShapeGroup">
                    <g id="API-KEY-Copy" transform="translate(15.000000, 762.000000)">
                        <g id="Api-key" transform="translate(80.000000, 0.000000)">
                            <g id="Api-key-icon" transform="translate(260.000000, 5.500000)">
                                <path d="M12.75,2.25 C11.4375,0.84375 9.5625,0 7.5,0 C3.375,0 0,3.375 0,7.5 C0,11.625 3.375,15 7.5,15 C10.96875,15 13.875,12.5625 14.71875,9.375 L12.75,9.375 C12,11.53125 9.9375,13.125 7.5,13.125 C4.40625,13.125 1.875,10.59375 1.875,7.5 C1.875,4.40625 4.40625,1.875 7.5,1.875 C9.09375,1.875 10.40625,2.53125 11.4375,3.5625 L8.4375,6.5625 L15,6.5625 L15,0 L12.75,2.25 L12.75,2.25 Z" id="Shape-Copy-2"></path>
                            </g>
                        </g>
                    </g>
                </g>
            </g>
        </g>
    </g>
</svg>