<svg xmlns="http://www.w3.org/2000/svg" viewBox="0 0 11.41 11.41"><title>sck-21-icons</title><path d="M5.4,2.93l-2,1.74a1.26,1.26,0,0,1-.72.27H1.86a0.41,0.41,0,0,0-.41.41V6.47a0.41,0.41,0,0,0,.41.41H2.71a1.5,1.5,0,0,1,.75.24L5.37,8.49c0.18,0.13.34,0.05,0.34-.17V3.07c0-.23-0.14-0.29-0.31-0.14M7.64,4a0.17,0.17,0,0,0,0,.25,2.4,2.4,0,0,1,0,3.07,0.17,0.17,0,0,0,.13.29A0.17,0.17,0,0,0,7.9,7.53,2.74,2.74,0,0,0,7.88,4a0.18,0.18,0,0,0-.25,0m-1,.47a0.17,0.17,0,0,0,0,.25A1.67,1.67,0,0,1,7,5.78a1.68,1.68,0,0,1-.41,1.06,0.18,0.18,0,0,0,0,.25,0.17,0.17,0,0,0,.25,0,2,2,0,0,0,.49-1.28,2,2,0,0,0-.5-1.3,0.17,0.17,0,0,0-.25,0m2.55-.93a0.18,0.18,0,0,0-.27.22,3.15,3.15,0,0,1,0,4,0.18,0.18,0,0,0,0,.25,0.18,0.18,0,0,0,.11,0A0.17,0.17,0,0,0,9.15,8a3.49,3.49,0,0,0,0-4.48"/><rect width="11.41" height="11.41" style="fill:none"/></svg>