<?xml version="1.0" encoding="UTF-8" standalone="no"?>
<svg width="8px" height="16px" viewBox="0 0 8 16" version="1.1" xmlns="http://www.w3.org/2000/svg" xmlns:xlink="http://www.w3.org/1999/xlink" xmlns:sketch="http://www.bohemiancoding.com/sketch/ns">
    <!-- Generator: Sketch 3.3.1 (12002) - http://www.bohemiancoding.com/sketch -->
    <title>temp_icon</title>
    <desc>Created with Sketch.</desc>
    <defs></defs>
    <g id="Preview-+-popup" stroke="none" stroke-width="1" sketch:type="MSPage">
        <g id="Subnavbar-+-preview-+-popup-OK" class="container_parent" sketch:type="MSArtboardGroup" transform="translate(-80.000000, -447.000000)" fill-opacity="0.87">
            <g id="Preview" class="container_children" sketch:type="MSLayerGroup" transform="translate(0.000000, 408.000000)">
                <g id="Sensor-data" transform="translate(74.000000, 6.000000)" sketch:type="MSShapeGroup">
                    <g id="TEMP-PREVIEW">
                        <path d="M10.9666665,43.1015286 L10.9666665,37.3949161 L8.97117561,37.3949161 L8.97117561,43.1007358 C8.27350695,43.4824716 7.78949932,44.2439611 7.78949932,45.129921 C7.78949932,46.3984094 8.76385702,47.4242995 9.97129948,47.4242995 C11.1739851,47.4242995 12.151514,46.3984094 12.151514,45.129921 C12.151514,44.2455467 11.6679028,43.4824716 10.9666665,43.1015286 L10.9666665,43.1015286 Z M12.4630865,35.6218071 C12.4630865,34.1765231 11.3436454,33 9.96931747,33 C8.59340388,33 7.47753044,34.1765231 7.47753044,35.6218071 L7.47753044,42.2980205 C6.72991505,43.0186805 6.29268293,44.0366425 6.29268293,45.129921 C6.29268293,47.2629636 7.94132153,49 9.97129948,49 C11.9977098,49 13.6491232,47.2629636 13.6491232,45.129921 C13.6491232,44.0366425 13.2079271,43.0170949 12.4630865,42.2964349 L12.4630865,35.6218071 L12.4630865,35.6218071 Z M12.6489994,45.1311102 C12.6489994,46.685405 11.4478993,47.949533 9.96931747,47.949533 C8.49311401,47.949533 7.292014,46.685405 7.292014,45.1311102 C7.292014,44.1884647 7.73638136,43.3239105 8.4764651,42.8034338 L8.4764651,35.6241855 C8.4764651,34.7568565 9.14400716,34.0500706 9.96931747,34.0500706 C10.7934386,34.0500706 11.4649447,34.7568565 11.4649447,35.6241855 L11.4649447,42.8034338 C12.2038392,43.3239105 12.6489994,44.1884647 12.6489994,45.1311102 L12.6489994,45.1311102 Z" id="temp_icon"></path>
                    </g>
                </g>
            </g>
        </g>
    </g>
</svg>
