<?xml version="1.0" encoding="utf-8"?>
<!-- Generator: Adobe Illustrator 16.0.0, SVG Export Plug-In . SVG Version: 6.00 Build 0)  -->
<!DOCTYPE svg PUBLIC "-//W3C//DTD SVG 1.1//EN" "http://www.w3.org/Graphics/SVG/1.1/DTD/svg11.dtd">
<svg version="1.1" id="Layer_1" xmlns:sketch="http://www.bohemiancoding.com/sketch/ns"
	 xmlns="http://www.w3.org/2000/svg" xmlns:xlink="http://www.w3.org/1999/xlink" x="0px" y="0px" width="14px" height="14px"
	 viewBox="-1.5 -2 14 14" enable-background="new -1.5 -2 14 14" xml:space="preserve">
<title>Update_icon</title>
<desc>Created with Sketch.</desc>
<g id="Preview-_x2B_-popup" sketch:type="MSPage">
	<g id="Subnavbar-_x2B_-preview-_x2B_-popup-OK" transform="translate(-397.000000, -125.000000)" sketch:type="MSArtboardGroup">
		<g id="Popup-Copy" transform="translate(388.500000, 72.000000)" sketch:type="MSLayerGroup">
			<path id="Update_icon" sketch:type="MSShapeGroup" d="M14,51c-3.85,0-7,3.15-7,7c0,3.85,3.15,7,7,7
				c3.85,0,7-3.15,7-7C21,54.15,17.85,51,14,51L14,51L14,51z M14,63.601c-3.08,0-5.6-2.521-5.6-5.601c0-3.081,2.521-5.6,5.6-5.6
				c3.079,0,5.601,2.52,5.601,5.6C19.601,61.08,17.079,63.601,14,63.601L14,63.601z M14.35,54.5H13.3v4.2l3.64,2.239L17.5,60.03
				l-3.15-1.89V54.5L14.35,54.5z"/>
		</g>
	</g>
</g>
</svg>
